<mxfile host="app.diagrams.net" agent="Mozilla/5.0 (Windows NT 10.0; Win64; x64) AppleWebKit/537.36 (KHTML, like Gecko) Chrome/136.0.0.0 Safari/537.36" version="27.0.3" pages="2">
  <diagram name="Class Diagram" id="A0tGhDx5CQQUypFjAxWj">
    <mxGraphModel dx="2453" dy="3787" grid="1" gridSize="10" guides="1" tooltips="1" connect="1" arrows="1" fold="1" page="1" pageScale="1" pageWidth="900" pageHeight="900" math="0" shadow="0">
      <root>
        <mxCell id="0" />
        <mxCell id="1" parent="0" />
        <mxCell id="JahsXHwQ70RZX7UrnIK1-1" style="edgeStyle=orthogonalEdgeStyle;rounded=0;orthogonalLoop=1;jettySize=auto;html=1;entryX=0.374;entryY=0;entryDx=0;entryDy=0;entryPerimeter=0;exitX=1.005;exitY=0.203;exitDx=0;exitDy=0;exitPerimeter=0;" edge="1" parent="1" source="JahsXHwQ70RZX7UrnIK1-2" target="JahsXHwQ70RZX7UrnIK1-21">
          <mxGeometry relative="1" as="geometry">
            <mxPoint x="1485" y="-518" as="targetPoint" />
            <Array as="points">
              <mxPoint x="1485" y="-687" />
            </Array>
          </mxGeometry>
        </mxCell>
        <mxCell id="JahsXHwQ70RZX7UrnIK1-2" value="&lt;div style=&quot;line-height: 150%;&quot;&gt;&lt;span style=&quot;font-weight: 700;&quot;&gt;&amp;lt;&amp;lt;ENUM&amp;gt;&amp;gt;&lt;/span&gt;&lt;div&gt;&lt;span style=&quot;font-weight: 700;&quot;&gt;Colors&lt;/span&gt;&lt;/div&gt;&lt;/div&gt;" style="swimlane;fontStyle=0;childLayout=stackLayout;horizontal=1;startSize=50;horizontalStack=0;resizeParent=1;resizeParentMax=0;resizeLast=0;collapsible=1;marginBottom=0;whiteSpace=wrap;html=1;verticalAlign=middle;fontFamily=Helvetica;" vertex="1" parent="1">
          <mxGeometry x="1285" y="-728" width="160" height="200" as="geometry" />
        </mxCell>
        <mxCell id="JahsXHwQ70RZX7UrnIK1-3" value="RED" style="text;strokeColor=none;fillColor=none;align=left;verticalAlign=middle;spacingLeft=4;spacingRight=4;overflow=hidden;points=[[0,0.5],[1,0.5]];portConstraint=eastwest;rotatable=0;whiteSpace=wrap;html=1;fontFamily=Helvetica;" vertex="1" parent="JahsXHwQ70RZX7UrnIK1-2">
          <mxGeometry y="50" width="160" height="30" as="geometry" />
        </mxCell>
        <mxCell id="JahsXHwQ70RZX7UrnIK1-4" value="YELLOW" style="text;strokeColor=none;fillColor=none;align=left;verticalAlign=middle;spacingLeft=4;spacingRight=4;overflow=hidden;points=[[0,0.5],[1,0.5]];portConstraint=eastwest;rotatable=0;whiteSpace=wrap;html=1;fontFamily=Helvetica;" vertex="1" parent="JahsXHwQ70RZX7UrnIK1-2">
          <mxGeometry y="80" width="160" height="30" as="geometry" />
        </mxCell>
        <mxCell id="JahsXHwQ70RZX7UrnIK1-5" value="GREEN" style="text;strokeColor=none;fillColor=none;align=left;verticalAlign=middle;spacingLeft=4;spacingRight=4;overflow=hidden;points=[[0,0.5],[1,0.5]];portConstraint=eastwest;rotatable=0;whiteSpace=wrap;html=1;fontFamily=Helvetica;" vertex="1" parent="JahsXHwQ70RZX7UrnIK1-2">
          <mxGeometry y="110" width="160" height="30" as="geometry" />
        </mxCell>
        <mxCell id="JahsXHwQ70RZX7UrnIK1-6" value="BLUE" style="text;strokeColor=none;fillColor=none;align=left;verticalAlign=middle;spacingLeft=4;spacingRight=4;overflow=hidden;points=[[0,0.5],[1,0.5]];portConstraint=eastwest;rotatable=0;whiteSpace=wrap;html=1;fontFamily=Helvetica;" vertex="1" parent="JahsXHwQ70RZX7UrnIK1-2">
          <mxGeometry y="140" width="160" height="30" as="geometry" />
        </mxCell>
        <mxCell id="JahsXHwQ70RZX7UrnIK1-7" value="WILD" style="text;strokeColor=none;fillColor=none;align=left;verticalAlign=middle;spacingLeft=4;spacingRight=4;overflow=hidden;points=[[0,0.5],[1,0.5]];portConstraint=eastwest;rotatable=0;whiteSpace=wrap;html=1;fontFamily=Helvetica;" vertex="1" parent="JahsXHwQ70RZX7UrnIK1-2">
          <mxGeometry y="170" width="160" height="30" as="geometry" />
        </mxCell>
        <mxCell id="JahsXHwQ70RZX7UrnIK1-8" style="edgeStyle=orthogonalEdgeStyle;rounded=0;orthogonalLoop=1;jettySize=auto;html=1;entryX=0.541;entryY=-0.003;entryDx=0;entryDy=0;entryPerimeter=0;exitX=0.003;exitY=0.117;exitDx=0;exitDy=0;exitPerimeter=0;" edge="1" parent="1" source="JahsXHwQ70RZX7UrnIK1-9" target="JahsXHwQ70RZX7UrnIK1-21">
          <mxGeometry relative="1" as="geometry">
            <mxPoint x="1525" y="-518" as="targetPoint" />
            <Array as="points">
              <mxPoint x="1566" y="-728" />
              <mxPoint x="1525" y="-728" />
            </Array>
          </mxGeometry>
        </mxCell>
        <mxCell id="JahsXHwQ70RZX7UrnIK1-9" value="&lt;div style=&quot;line-height: 150%;&quot;&gt;&lt;span style=&quot;font-weight: 700;&quot;&gt;&amp;lt;&amp;lt;ENUM&amp;gt;&amp;gt;&lt;/span&gt;&lt;div&gt;&lt;span style=&quot;font-weight: 700;&quot;&gt;Types&lt;/span&gt;&lt;/div&gt;&lt;/div&gt;" style="swimlane;fontStyle=0;childLayout=stackLayout;horizontal=1;startSize=50;horizontalStack=0;resizeParent=1;resizeParentMax=0;resizeLast=0;collapsible=1;marginBottom=0;whiteSpace=wrap;html=1;verticalAlign=middle;fontFamily=Helvetica;" vertex="1" parent="1">
          <mxGeometry x="1565" y="-758" width="160" height="230" as="geometry" />
        </mxCell>
        <mxCell id="JahsXHwQ70RZX7UrnIK1-10" value="NUMBER" style="text;strokeColor=none;fillColor=none;align=left;verticalAlign=middle;spacingLeft=4;spacingRight=4;overflow=hidden;points=[[0,0.5],[1,0.5]];portConstraint=eastwest;rotatable=0;whiteSpace=wrap;html=1;fontFamily=Helvetica;" vertex="1" parent="JahsXHwQ70RZX7UrnIK1-9">
          <mxGeometry y="50" width="160" height="30" as="geometry" />
        </mxCell>
        <mxCell id="JahsXHwQ70RZX7UrnIK1-11" value="SKIP" style="text;strokeColor=none;fillColor=none;align=left;verticalAlign=middle;spacingLeft=4;spacingRight=4;overflow=hidden;points=[[0,0.5],[1,0.5]];portConstraint=eastwest;rotatable=0;whiteSpace=wrap;html=1;fontFamily=Helvetica;" vertex="1" parent="JahsXHwQ70RZX7UrnIK1-9">
          <mxGeometry y="80" width="160" height="30" as="geometry" />
        </mxCell>
        <mxCell id="JahsXHwQ70RZX7UrnIK1-12" value="REVERSE" style="text;strokeColor=none;fillColor=none;align=left;verticalAlign=middle;spacingLeft=4;spacingRight=4;overflow=hidden;points=[[0,0.5],[1,0.5]];portConstraint=eastwest;rotatable=0;whiteSpace=wrap;html=1;fontFamily=Helvetica;" vertex="1" parent="JahsXHwQ70RZX7UrnIK1-9">
          <mxGeometry y="110" width="160" height="30" as="geometry" />
        </mxCell>
        <mxCell id="JahsXHwQ70RZX7UrnIK1-13" value="WILD" style="text;strokeColor=none;fillColor=none;align=left;verticalAlign=middle;spacingLeft=4;spacingRight=4;overflow=hidden;points=[[0,0.5],[1,0.5]];portConstraint=eastwest;rotatable=0;whiteSpace=wrap;html=1;fontFamily=Helvetica;" vertex="1" parent="JahsXHwQ70RZX7UrnIK1-9">
          <mxGeometry y="140" width="160" height="30" as="geometry" />
        </mxCell>
        <mxCell id="JahsXHwQ70RZX7UrnIK1-14" value="DRAW_TWO" style="text;strokeColor=none;fillColor=none;align=left;verticalAlign=middle;spacingLeft=4;spacingRight=4;overflow=hidden;points=[[0,0.5],[1,0.5]];portConstraint=eastwest;rotatable=0;whiteSpace=wrap;html=1;fontFamily=Helvetica;" vertex="1" parent="JahsXHwQ70RZX7UrnIK1-9">
          <mxGeometry y="170" width="160" height="30" as="geometry" />
        </mxCell>
        <mxCell id="JahsXHwQ70RZX7UrnIK1-15" value="DRAW_FOUR" style="text;strokeColor=none;fillColor=none;align=left;verticalAlign=middle;spacingLeft=4;spacingRight=4;overflow=hidden;points=[[0,0.5],[1,0.5]];portConstraint=eastwest;rotatable=0;whiteSpace=wrap;html=1;fontFamily=Helvetica;" vertex="1" parent="JahsXHwQ70RZX7UrnIK1-9">
          <mxGeometry y="200" width="160" height="30" as="geometry" />
        </mxCell>
        <mxCell id="JahsXHwQ70RZX7UrnIK1-16" style="edgeStyle=orthogonalEdgeStyle;rounded=0;orthogonalLoop=1;jettySize=auto;html=1;entryX=0.5;entryY=0;entryDx=0;entryDy=0;" edge="1" parent="1" source="JahsXHwQ70RZX7UrnIK1-17" target="JahsXHwQ70RZX7UrnIK1-80">
          <mxGeometry relative="1" as="geometry">
            <Array as="points">
              <mxPoint x="2645" y="-158" />
              <mxPoint x="2535" y="-158" />
            </Array>
          </mxGeometry>
        </mxCell>
        <mxCell id="JahsXHwQ70RZX7UrnIK1-17" value="&lt;div style=&quot;line-height: 150%;&quot;&gt;&lt;span style=&quot;font-weight: 700;&quot;&gt;&amp;lt;&amp;lt;ENUM&amp;gt;&amp;gt;&lt;/span&gt;&lt;div&gt;&lt;div&gt;&lt;span style=&quot;font-weight: 700;&quot;&gt;ComputerActionResult&lt;/span&gt;&lt;/div&gt;&lt;/div&gt;&lt;/div&gt;" style="swimlane;fontStyle=0;childLayout=stackLayout;horizontal=1;startSize=50;horizontalStack=0;resizeParent=1;resizeParentMax=0;resizeLast=0;collapsible=1;marginBottom=0;whiteSpace=wrap;html=1;verticalAlign=middle;fontFamily=Helvetica;" vertex="1" parent="1">
          <mxGeometry x="2565" y="-328" width="160" height="110" as="geometry" />
        </mxCell>
        <mxCell id="JahsXHwQ70RZX7UrnIK1-18" value="PLAYED" style="text;strokeColor=none;fillColor=none;align=left;verticalAlign=middle;spacingLeft=4;spacingRight=4;overflow=hidden;points=[[0,0.5],[1,0.5]];portConstraint=eastwest;rotatable=0;whiteSpace=wrap;html=1;fontFamily=Helvetica;" vertex="1" parent="JahsXHwQ70RZX7UrnIK1-17">
          <mxGeometry y="50" width="160" height="30" as="geometry" />
        </mxCell>
        <mxCell id="JahsXHwQ70RZX7UrnIK1-19" value="DRAWN" style="text;strokeColor=none;fillColor=none;align=left;verticalAlign=middle;spacingLeft=4;spacingRight=4;overflow=hidden;points=[[0,0.5],[1,0.5]];portConstraint=eastwest;rotatable=0;whiteSpace=wrap;html=1;fontFamily=Helvetica;" vertex="1" parent="JahsXHwQ70RZX7UrnIK1-17">
          <mxGeometry y="80" width="160" height="30" as="geometry" />
        </mxCell>
        <mxCell id="JahsXHwQ70RZX7UrnIK1-20" style="edgeStyle=orthogonalEdgeStyle;rounded=0;orthogonalLoop=1;jettySize=auto;html=1;entryX=0.5;entryY=0;entryDx=0;entryDy=0;" edge="1" parent="1" source="JahsXHwQ70RZX7UrnIK1-21" target="JahsXHwQ70RZX7UrnIK1-62">
          <mxGeometry relative="1" as="geometry">
            <Array as="points">
              <mxPoint x="1105" y="-478" />
            </Array>
          </mxGeometry>
        </mxCell>
        <mxCell id="JahsXHwQ70RZX7UrnIK1-21" value="&lt;div style=&quot;line-height: 150%;&quot;&gt;&lt;div&gt;&amp;lt;&amp;lt;ABSTRACT&amp;gt;&amp;gt;&lt;/div&gt;Abstract Card&lt;/div&gt;" style="swimlane;fontStyle=1;align=center;verticalAlign=middle;childLayout=stackLayout;horizontal=1;startSize=50;horizontalStack=0;resizeParent=1;resizeParentMax=0;resizeLast=0;collapsible=1;marginBottom=0;whiteSpace=wrap;html=1;fontFamily=Helvetica;" vertex="1" parent="1">
          <mxGeometry x="1395" y="-508" width="240" height="266" as="geometry" />
        </mxCell>
        <mxCell id="JahsXHwQ70RZX7UrnIK1-22" value="- color: Colors" style="text;strokeColor=none;fillColor=none;align=left;verticalAlign=middle;spacingLeft=4;spacingRight=4;overflow=hidden;rotatable=0;points=[[0,0.5],[1,0.5]];portConstraint=eastwest;whiteSpace=wrap;html=1;fontFamily=Helvetica;" vertex="1" parent="JahsXHwQ70RZX7UrnIK1-21">
          <mxGeometry y="50" width="240" height="26" as="geometry" />
        </mxCell>
        <mxCell id="JahsXHwQ70RZX7UrnIK1-23" value="- type: Types" style="text;strokeColor=none;fillColor=none;align=left;verticalAlign=middle;spacingLeft=4;spacingRight=4;overflow=hidden;rotatable=0;points=[[0,0.5],[1,0.5]];portConstraint=eastwest;whiteSpace=wrap;html=1;fontFamily=Helvetica;" vertex="1" parent="JahsXHwQ70RZX7UrnIK1-21">
          <mxGeometry y="76" width="240" height="26" as="geometry" />
        </mxCell>
        <mxCell id="JahsXHwQ70RZX7UrnIK1-24" value="" style="line;strokeWidth=1;fillColor=none;align=left;verticalAlign=middle;spacingTop=-1;spacingLeft=3;spacingRight=3;rotatable=0;labelPosition=right;points=[];portConstraint=eastwest;strokeColor=inherit;fontFamily=Helvetica;" vertex="1" parent="JahsXHwQ70RZX7UrnIK1-21">
          <mxGeometry y="102" width="240" height="8" as="geometry" />
        </mxCell>
        <mxCell id="JahsXHwQ70RZX7UrnIK1-25" value="+ getColor(): Colors" style="text;strokeColor=none;fillColor=none;align=left;verticalAlign=middle;spacingLeft=4;spacingRight=4;overflow=hidden;rotatable=0;points=[[0,0.5],[1,0.5]];portConstraint=eastwest;whiteSpace=wrap;html=1;fontFamily=Helvetica;" vertex="1" parent="JahsXHwQ70RZX7UrnIK1-21">
          <mxGeometry y="110" width="240" height="26" as="geometry" />
        </mxCell>
        <mxCell id="JahsXHwQ70RZX7UrnIK1-26" value="+ getType(): Types" style="text;strokeColor=none;fillColor=none;align=left;verticalAlign=middle;spacingLeft=4;spacingRight=4;overflow=hidden;rotatable=0;points=[[0,0.5],[1,0.5]];portConstraint=eastwest;whiteSpace=wrap;html=1;fontFamily=Helvetica;" vertex="1" parent="JahsXHwQ70RZX7UrnIK1-21">
          <mxGeometry y="136" width="240" height="26" as="geometry" />
        </mxCell>
        <mxCell id="JahsXHwQ70RZX7UrnIK1-27" value="+ getImagePath(): String" style="text;strokeColor=none;fillColor=none;align=left;verticalAlign=middle;spacingLeft=4;spacingRight=4;overflow=hidden;rotatable=0;points=[[0,0.5],[1,0.5]];portConstraint=eastwest;whiteSpace=wrap;html=1;fontFamily=Helvetica;" vertex="1" parent="JahsXHwQ70RZX7UrnIK1-21">
          <mxGeometry y="162" width="240" height="26" as="geometry" />
        </mxCell>
        <mxCell id="JahsXHwQ70RZX7UrnIK1-28" value="+ canPlayOn(AbstractCarad): Boolean" style="text;strokeColor=none;fillColor=none;align=left;verticalAlign=middle;spacingLeft=4;spacingRight=4;overflow=hidden;rotatable=0;points=[[0,0.5],[1,0.5]];portConstraint=eastwest;whiteSpace=wrap;html=1;fontFamily=Helvetica;" vertex="1" parent="JahsXHwQ70RZX7UrnIK1-21">
          <mxGeometry y="188" width="240" height="26" as="geometry" />
        </mxCell>
        <mxCell id="JahsXHwQ70RZX7UrnIK1-29" value="+ getValue(): Int" style="text;strokeColor=none;fillColor=none;align=left;verticalAlign=middle;spacingLeft=4;spacingRight=4;overflow=hidden;rotatable=0;points=[[0,0.5],[1,0.5]];portConstraint=eastwest;whiteSpace=wrap;html=1;fontFamily=Helvetica;" vertex="1" parent="JahsXHwQ70RZX7UrnIK1-21">
          <mxGeometry y="214" width="240" height="26" as="geometry" />
        </mxCell>
        <mxCell id="JahsXHwQ70RZX7UrnIK1-30" value="+ toString(): String" style="text;strokeColor=none;fillColor=none;align=left;verticalAlign=middle;spacingLeft=4;spacingRight=4;overflow=hidden;rotatable=0;points=[[0,0.5],[1,0.5]];portConstraint=eastwest;whiteSpace=wrap;html=1;fontFamily=Helvetica;" vertex="1" parent="JahsXHwQ70RZX7UrnIK1-21">
          <mxGeometry y="240" width="240" height="26" as="geometry" />
        </mxCell>
        <mxCell id="JahsXHwQ70RZX7UrnIK1-31" value="&lt;div style=&quot;line-height: 150%;&quot;&gt;&lt;div&gt;&amp;lt;&amp;lt;ABSTRACT&amp;gt;&amp;gt;&lt;/div&gt;Abstract Player&lt;/div&gt;" style="swimlane;fontStyle=1;align=center;verticalAlign=middle;childLayout=stackLayout;horizontal=1;startSize=50;horizontalStack=0;resizeParent=1;resizeParentMax=0;resizeLast=0;collapsible=1;marginBottom=0;whiteSpace=wrap;html=1;fontFamily=Helvetica;" vertex="1" parent="1">
          <mxGeometry x="2145" y="-712" width="390" height="344" as="geometry" />
        </mxCell>
        <mxCell id="JahsXHwQ70RZX7UrnIK1-32" value="- name: String" style="text;strokeColor=none;fillColor=none;align=left;verticalAlign=middle;spacingLeft=4;spacingRight=4;overflow=hidden;rotatable=0;points=[[0,0.5],[1,0.5]];portConstraint=eastwest;whiteSpace=wrap;html=1;fontFamily=Helvetica;" vertex="1" parent="JahsXHwQ70RZX7UrnIK1-31">
          <mxGeometry y="50" width="390" height="26" as="geometry" />
        </mxCell>
        <mxCell id="JahsXHwQ70RZX7UrnIK1-33" value="- hand: List&amp;lt;AbstractCard&amp;gt;" style="text;strokeColor=none;fillColor=none;align=left;verticalAlign=middle;spacingLeft=4;spacingRight=4;overflow=hidden;rotatable=0;points=[[0,0.5],[1,0.5]];portConstraint=eastwest;whiteSpace=wrap;html=1;fontFamily=Helvetica;" vertex="1" parent="JahsXHwQ70RZX7UrnIK1-31">
          <mxGeometry y="76" width="390" height="26" as="geometry" />
        </mxCell>
        <mxCell id="JahsXHwQ70RZX7UrnIK1-34" value="" style="line;strokeWidth=1;fillColor=none;align=left;verticalAlign=middle;spacingTop=-1;spacingLeft=3;spacingRight=3;rotatable=0;labelPosition=right;points=[];portConstraint=eastwest;strokeColor=inherit;fontFamily=Helvetica;" vertex="1" parent="JahsXHwQ70RZX7UrnIK1-31">
          <mxGeometry y="102" width="390" height="8" as="geometry" />
        </mxCell>
        <mxCell id="JahsXHwQ70RZX7UrnIK1-35" value="+ setName(name: String): void&lt;span style=&quot;white-space: pre;&quot;&gt;&#x9;&lt;/span&gt;" style="text;strokeColor=none;fillColor=none;align=left;verticalAlign=middle;spacingLeft=4;spacingRight=4;overflow=hidden;rotatable=0;points=[[0,0.5],[1,0.5]];portConstraint=eastwest;whiteSpace=wrap;html=1;fontFamily=Helvetica;" vertex="1" parent="JahsXHwQ70RZX7UrnIK1-31">
          <mxGeometry y="110" width="390" height="26" as="geometry" />
        </mxCell>
        <mxCell id="JahsXHwQ70RZX7UrnIK1-36" value="+ getName(): String" style="text;strokeColor=none;fillColor=none;align=left;verticalAlign=middle;spacingLeft=4;spacingRight=4;overflow=hidden;rotatable=0;points=[[0,0.5],[1,0.5]];portConstraint=eastwest;whiteSpace=wrap;html=1;fontFamily=Helvetica;" vertex="1" parent="JahsXHwQ70RZX7UrnIK1-31">
          <mxGeometry y="136" width="390" height="26" as="geometry" />
        </mxCell>
        <mxCell id="JahsXHwQ70RZX7UrnIK1-37" value="+ getHand(): List&amp;lt;AbstractCard&amp;gt;" style="text;strokeColor=none;fillColor=none;align=left;verticalAlign=middle;spacingLeft=4;spacingRight=4;overflow=hidden;rotatable=0;points=[[0,0.5],[1,0.5]];portConstraint=eastwest;whiteSpace=wrap;html=1;fontFamily=Helvetica;" vertex="1" parent="JahsXHwQ70RZX7UrnIK1-31">
          <mxGeometry y="162" width="390" height="26" as="geometry" />
        </mxCell>
        <mxCell id="JahsXHwQ70RZX7UrnIK1-38" value="+ addCard(card: AbstractCard): void" style="text;strokeColor=none;fillColor=none;align=left;verticalAlign=middle;spacingLeft=4;spacingRight=4;overflow=hidden;rotatable=0;points=[[0,0.5],[1,0.5]];portConstraint=eastwest;whiteSpace=wrap;html=1;fontFamily=Helvetica;" vertex="1" parent="JahsXHwQ70RZX7UrnIK1-31">
          <mxGeometry y="188" width="390" height="26" as="geometry" />
        </mxCell>
        <mxCell id="JahsXHwQ70RZX7UrnIK1-39" value="+ playCard(index: int): AbstractCard" style="text;strokeColor=none;fillColor=none;align=left;verticalAlign=middle;spacingLeft=4;spacingRight=4;overflow=hidden;rotatable=0;points=[[0,0.5],[1,0.5]];portConstraint=eastwest;whiteSpace=wrap;html=1;fontFamily=Helvetica;" vertex="1" parent="JahsXHwQ70RZX7UrnIK1-31">
          <mxGeometry y="214" width="390" height="26" as="geometry" />
        </mxCell>
        <mxCell id="JahsXHwQ70RZX7UrnIK1-40" value="+ hasValidMove(topCard: AbstractCard, currentColor: Colors): boolean" style="text;strokeColor=none;fillColor=none;align=left;verticalAlign=middle;spacingLeft=4;spacingRight=4;overflow=hidden;rotatable=0;points=[[0,0.5],[1,0.5]];portConstraint=eastwest;whiteSpace=wrap;html=1;fontFamily=Helvetica;" vertex="1" parent="JahsXHwQ70RZX7UrnIK1-31">
          <mxGeometry y="240" width="390" height="26" as="geometry" />
        </mxCell>
        <mxCell id="JahsXHwQ70RZX7UrnIK1-41" value="+ selectCardToPlay(topCard: AbstractCard, currentColor: Colors): int" style="text;strokeColor=none;fillColor=none;align=left;verticalAlign=middle;spacingLeft=4;spacingRight=4;overflow=hidden;rotatable=0;points=[[0,0.5],[1,0.5]];portConstraint=eastwest;whiteSpace=wrap;html=1;fontFamily=Helvetica;" vertex="1" parent="JahsXHwQ70RZX7UrnIK1-31">
          <mxGeometry y="266" width="390" height="26" as="geometry" />
        </mxCell>
        <mxCell id="JahsXHwQ70RZX7UrnIK1-42" value="+ hasUno(): boolean" style="text;strokeColor=none;fillColor=none;align=left;verticalAlign=middle;spacingLeft=4;spacingRight=4;overflow=hidden;rotatable=0;points=[[0,0.5],[1,0.5]];portConstraint=eastwest;whiteSpace=wrap;html=1;fontFamily=Helvetica;" vertex="1" parent="JahsXHwQ70RZX7UrnIK1-31">
          <mxGeometry y="292" width="390" height="26" as="geometry" />
        </mxCell>
        <mxCell id="JahsXHwQ70RZX7UrnIK1-43" value="+ hasWon(): boolean" style="text;strokeColor=none;fillColor=none;align=left;verticalAlign=middle;spacingLeft=4;spacingRight=4;overflow=hidden;rotatable=0;points=[[0,0.5],[1,0.5]];portConstraint=eastwest;whiteSpace=wrap;html=1;fontFamily=Helvetica;" vertex="1" parent="JahsXHwQ70RZX7UrnIK1-31">
          <mxGeometry y="318" width="390" height="26" as="geometry" />
        </mxCell>
        <mxCell id="JahsXHwQ70RZX7UrnIK1-44" style="edgeStyle=orthogonalEdgeStyle;rounded=0;orthogonalLoop=1;jettySize=auto;html=1;entryX=0.5;entryY=1;entryDx=0;entryDy=0;" edge="1" parent="1" source="JahsXHwQ70RZX7UrnIK1-45" target="JahsXHwQ70RZX7UrnIK1-129">
          <mxGeometry relative="1" as="geometry">
            <mxPoint x="1945" y="-258" as="targetPoint" />
          </mxGeometry>
        </mxCell>
        <mxCell id="JahsXHwQ70RZX7UrnIK1-45" value="&lt;div style=&quot;line-height: 150%;&quot;&gt;&lt;span style=&quot;font-weight: 700;&quot;&gt;&amp;lt;&amp;lt;INTERFACE&amp;gt;&amp;gt;&lt;/span&gt;&lt;div&gt;&lt;b&gt;ComputerStrategy&amp;nbsp;&lt;/b&gt;&lt;/div&gt;&lt;/div&gt;" style="swimlane;fontStyle=0;childLayout=stackLayout;horizontal=1;startSize=50;horizontalStack=0;resizeParent=1;resizeParentMax=0;resizeLast=0;collapsible=1;marginBottom=0;whiteSpace=wrap;html=1;verticalAlign=middle;fontFamily=Helvetica;" vertex="1" parent="1">
          <mxGeometry x="1805" y="-188" width="280" height="110" as="geometry" />
        </mxCell>
        <mxCell id="JahsXHwQ70RZX7UrnIK1-46" value="+ selectCardToPlay(hand: List&amp;lt;AbstractCard&amp;gt;, topCard: AbstractCard, currentColor: Colors): int" style="text;strokeColor=none;fillColor=none;align=left;verticalAlign=middle;spacingLeft=4;spacingRight=4;overflow=hidden;points=[[0,0.5],[1,0.5]];portConstraint=eastwest;rotatable=0;whiteSpace=wrap;html=1;perimeterSpacing=0;spacing=2;spacingTop=3;fontFamily=Helvetica;" vertex="1" parent="JahsXHwQ70RZX7UrnIK1-45">
          <mxGeometry y="50" width="280" height="60" as="geometry" />
        </mxCell>
        <mxCell id="JahsXHwQ70RZX7UrnIK1-47" value="&lt;div style=&quot;line-height: 150%;&quot;&gt;&lt;div&gt;CardNumber&lt;/div&gt;&lt;/div&gt;" style="swimlane;fontStyle=1;align=center;verticalAlign=middle;childLayout=stackLayout;horizontal=1;startSize=30;horizontalStack=0;resizeParent=1;resizeParentMax=0;resizeLast=0;collapsible=1;marginBottom=0;whiteSpace=wrap;html=1;fontFamily=Helvetica;" vertex="1" parent="1">
          <mxGeometry x="1255" y="-188" width="240" height="194" as="geometry" />
        </mxCell>
        <mxCell id="JahsXHwQ70RZX7UrnIK1-48" value="- number: int" style="text;strokeColor=none;fillColor=none;align=left;verticalAlign=middle;spacingLeft=4;spacingRight=4;overflow=hidden;rotatable=0;points=[[0,0.5],[1,0.5]];portConstraint=eastwest;whiteSpace=wrap;html=1;fontFamily=Helvetica;" vertex="1" parent="JahsXHwQ70RZX7UrnIK1-47">
          <mxGeometry y="30" width="240" height="26" as="geometry" />
        </mxCell>
        <mxCell id="JahsXHwQ70RZX7UrnIK1-49" value="" style="line;strokeWidth=1;fillColor=none;align=left;verticalAlign=middle;spacingTop=-1;spacingLeft=3;spacingRight=3;rotatable=0;labelPosition=right;points=[];portConstraint=eastwest;strokeColor=inherit;fontFamily=Helvetica;" vertex="1" parent="JahsXHwQ70RZX7UrnIK1-47">
          <mxGeometry y="56" width="240" height="8" as="geometry" />
        </mxCell>
        <mxCell id="JahsXHwQ70RZX7UrnIK1-50" value="+ CardNumber(color: Colors, number: int)" style="text;strokeColor=none;fillColor=none;align=left;verticalAlign=middle;spacingLeft=4;spacingRight=4;overflow=hidden;rotatable=0;points=[[0,0.5],[1,0.5]];portConstraint=eastwest;whiteSpace=wrap;html=1;fontFamily=Helvetica;" vertex="1" parent="JahsXHwQ70RZX7UrnIK1-47">
          <mxGeometry y="64" width="240" height="26" as="geometry" />
        </mxCell>
        <mxCell id="JahsXHwQ70RZX7UrnIK1-51" value="+ getValue(): int" style="text;strokeColor=none;fillColor=none;align=left;verticalAlign=middle;spacingLeft=4;spacingRight=4;overflow=hidden;rotatable=0;points=[[0,0.5],[1,0.5]];portConstraint=eastwest;whiteSpace=wrap;html=1;fontFamily=Helvetica;" vertex="1" parent="JahsXHwQ70RZX7UrnIK1-47">
          <mxGeometry y="90" width="240" height="26" as="geometry" />
        </mxCell>
        <mxCell id="JahsXHwQ70RZX7UrnIK1-52" value="+ canPlayOn(other: AbstractCard): boolean" style="text;strokeColor=none;fillColor=none;align=left;verticalAlign=middle;spacingLeft=4;spacingRight=4;overflow=hidden;rotatable=0;points=[[0,0.5],[1,0.5]];portConstraint=eastwest;whiteSpace=wrap;html=1;fontFamily=Helvetica;" vertex="1" parent="JahsXHwQ70RZX7UrnIK1-47">
          <mxGeometry y="116" width="240" height="26" as="geometry" />
        </mxCell>
        <mxCell id="JahsXHwQ70RZX7UrnIK1-53" value="+ toString(): String" style="text;strokeColor=none;fillColor=none;align=left;verticalAlign=middle;spacingLeft=4;spacingRight=4;overflow=hidden;rotatable=0;points=[[0,0.5],[1,0.5]];portConstraint=eastwest;whiteSpace=wrap;html=1;fontFamily=Helvetica;" vertex="1" parent="JahsXHwQ70RZX7UrnIK1-47">
          <mxGeometry y="142" width="240" height="26" as="geometry" />
        </mxCell>
        <mxCell id="JahsXHwQ70RZX7UrnIK1-54" value="+ getImagePath(): String" style="text;strokeColor=none;fillColor=none;align=left;verticalAlign=middle;spacingLeft=4;spacingRight=4;overflow=hidden;rotatable=0;points=[[0,0.5],[1,0.5]];portConstraint=eastwest;whiteSpace=wrap;html=1;fontFamily=Helvetica;" vertex="1" parent="JahsXHwQ70RZX7UrnIK1-47">
          <mxGeometry y="168" width="240" height="26" as="geometry" />
        </mxCell>
        <mxCell id="JahsXHwQ70RZX7UrnIK1-55" value="&lt;div style=&quot;line-height: 150%;&quot;&gt;&lt;div&gt;CardAction&lt;/div&gt;&lt;/div&gt;" style="swimlane;fontStyle=1;align=center;verticalAlign=middle;childLayout=stackLayout;horizontal=1;startSize=30;horizontalStack=0;resizeParent=1;resizeParentMax=0;resizeLast=0;collapsible=1;marginBottom=0;whiteSpace=wrap;html=1;fontFamily=Helvetica;" vertex="1" parent="1">
          <mxGeometry x="1535" y="-188" width="240" height="168" as="geometry" />
        </mxCell>
        <mxCell id="JahsXHwQ70RZX7UrnIK1-56" value="" style="line;strokeWidth=1;fillColor=none;align=left;verticalAlign=middle;spacingTop=-1;spacingLeft=3;spacingRight=3;rotatable=0;labelPosition=right;points=[];portConstraint=eastwest;strokeColor=inherit;fontFamily=Helvetica;" vertex="1" parent="JahsXHwQ70RZX7UrnIK1-55">
          <mxGeometry y="30" width="240" height="8" as="geometry" />
        </mxCell>
        <mxCell id="JahsXHwQ70RZX7UrnIK1-57" value="&lt;span style=&quot;font-size: 12px;&quot;&gt;+ CardAction(color: Colors, type: Types)&lt;/span&gt;" style="text;strokeColor=none;fillColor=none;align=left;verticalAlign=middle;spacingLeft=4;spacingRight=4;overflow=hidden;rotatable=0;points=[[0,0.5],[1,0.5]];portConstraint=eastwest;whiteSpace=wrap;html=1;fontFamily=Helvetica;" vertex="1" parent="JahsXHwQ70RZX7UrnIK1-55">
          <mxGeometry y="38" width="240" height="26" as="geometry" />
        </mxCell>
        <mxCell id="JahsXHwQ70RZX7UrnIK1-58" value="+ canPlayOn(other: AbstractCard): boolean" style="text;strokeColor=none;fillColor=none;align=left;verticalAlign=middle;spacingLeft=4;spacingRight=4;overflow=hidden;rotatable=0;points=[[0,0.5],[1,0.5]];portConstraint=eastwest;whiteSpace=wrap;html=1;fontFamily=Helvetica;" vertex="1" parent="JahsXHwQ70RZX7UrnIK1-55">
          <mxGeometry y="64" width="240" height="26" as="geometry" />
        </mxCell>
        <mxCell id="JahsXHwQ70RZX7UrnIK1-59" value="+ getImagePath(): String" style="text;strokeColor=none;fillColor=none;align=left;verticalAlign=middle;spacingLeft=4;spacingRight=4;overflow=hidden;rotatable=0;points=[[0,0.5],[1,0.5]];portConstraint=eastwest;whiteSpace=wrap;html=1;fontFamily=Helvetica;" vertex="1" parent="JahsXHwQ70RZX7UrnIK1-55">
          <mxGeometry y="90" width="240" height="26" as="geometry" />
        </mxCell>
        <mxCell id="JahsXHwQ70RZX7UrnIK1-60" value="+ getValue(): int" style="text;strokeColor=none;fillColor=none;align=left;verticalAlign=middle;spacingLeft=4;spacingRight=4;overflow=hidden;rotatable=0;points=[[0,0.5],[1,0.5]];portConstraint=eastwest;whiteSpace=wrap;html=1;fontFamily=Helvetica;" vertex="1" parent="JahsXHwQ70RZX7UrnIK1-55">
          <mxGeometry y="116" width="240" height="26" as="geometry" />
        </mxCell>
        <mxCell id="JahsXHwQ70RZX7UrnIK1-61" value="+ toString(): String" style="text;strokeColor=none;fillColor=none;align=left;verticalAlign=middle;spacingLeft=4;spacingRight=4;overflow=hidden;rotatable=0;points=[[0,0.5],[1,0.5]];portConstraint=eastwest;whiteSpace=wrap;html=1;fontFamily=Helvetica;" vertex="1" parent="JahsXHwQ70RZX7UrnIK1-55">
          <mxGeometry y="142" width="240" height="26" as="geometry" />
        </mxCell>
        <mxCell id="JahsXHwQ70RZX7UrnIK1-62" value="&lt;div style=&quot;line-height: 150%;&quot;&gt;&lt;div&gt;Deck&lt;/div&gt;&lt;/div&gt;" style="swimlane;fontStyle=1;align=center;verticalAlign=middle;childLayout=stackLayout;horizontal=1;startSize=30;horizontalStack=0;resizeParent=1;resizeParentMax=0;resizeLast=0;collapsible=1;marginBottom=0;whiteSpace=wrap;html=1;fontFamily=Helvetica;" vertex="1" parent="1">
          <mxGeometry x="985" y="-188" width="240" height="246" as="geometry" />
        </mxCell>
        <mxCell id="JahsXHwQ70RZX7UrnIK1-63" value="- cards: List&amp;lt;AbstractCard&amp;gt;" style="text;strokeColor=none;fillColor=none;align=left;verticalAlign=middle;spacingLeft=4;spacingRight=4;overflow=hidden;rotatable=0;points=[[0,0.5],[1,0.5]];portConstraint=eastwest;whiteSpace=wrap;html=1;fontFamily=Helvetica;" vertex="1" parent="JahsXHwQ70RZX7UrnIK1-62">
          <mxGeometry y="30" width="240" height="26" as="geometry" />
        </mxCell>
        <mxCell id="JahsXHwQ70RZX7UrnIK1-64" value="- discardPile: List&amp;lt;AbstractCard&amp;gt;" style="text;strokeColor=none;fillColor=none;align=left;verticalAlign=middle;spacingLeft=4;spacingRight=4;overflow=hidden;rotatable=0;points=[[0,0.5],[1,0.5]];portConstraint=eastwest;whiteSpace=wrap;html=1;fontFamily=Helvetica;" vertex="1" parent="JahsXHwQ70RZX7UrnIK1-62">
          <mxGeometry y="56" width="240" height="26" as="geometry" />
        </mxCell>
        <mxCell id="JahsXHwQ70RZX7UrnIK1-65" value="" style="line;strokeWidth=1;fillColor=none;align=left;verticalAlign=middle;spacingTop=-1;spacingLeft=3;spacingRight=3;rotatable=0;labelPosition=right;points=[];portConstraint=eastwest;strokeColor=inherit;fontFamily=Helvetica;" vertex="1" parent="JahsXHwQ70RZX7UrnIK1-62">
          <mxGeometry y="82" width="240" height="8" as="geometry" />
        </mxCell>
        <mxCell id="JahsXHwQ70RZX7UrnIK1-66" value="+ Deck()" style="text;strokeColor=none;fillColor=none;align=left;verticalAlign=middle;spacingLeft=4;spacingRight=4;overflow=hidden;rotatable=0;points=[[0,0.5],[1,0.5]];portConstraint=eastwest;whiteSpace=wrap;html=1;fontFamily=Helvetica;" vertex="1" parent="JahsXHwQ70RZX7UrnIK1-62">
          <mxGeometry y="90" width="240" height="26" as="geometry" />
        </mxCell>
        <mxCell id="JahsXHwQ70RZX7UrnIK1-67" value="+ initializeDeck(): void" style="text;strokeColor=none;fillColor=none;align=left;verticalAlign=middle;spacingLeft=4;spacingRight=4;overflow=hidden;rotatable=0;points=[[0,0.5],[1,0.5]];portConstraint=eastwest;whiteSpace=wrap;html=1;fontFamily=Helvetica;" vertex="1" parent="JahsXHwQ70RZX7UrnIK1-62">
          <mxGeometry y="116" width="240" height="26" as="geometry" />
        </mxCell>
        <mxCell id="JahsXHwQ70RZX7UrnIK1-68" value="+ shuffle(): void" style="text;strokeColor=none;fillColor=none;align=left;verticalAlign=middle;spacingLeft=4;spacingRight=4;overflow=hidden;rotatable=0;points=[[0,0.5],[1,0.5]];portConstraint=eastwest;whiteSpace=wrap;html=1;fontFamily=Helvetica;" vertex="1" parent="JahsXHwQ70RZX7UrnIK1-62">
          <mxGeometry y="142" width="240" height="26" as="geometry" />
        </mxCell>
        <mxCell id="JahsXHwQ70RZX7UrnIK1-69" value="+ drawCard(): AbstractCard" style="text;strokeColor=none;fillColor=none;align=left;verticalAlign=middle;spacingLeft=4;spacingRight=4;overflow=hidden;rotatable=0;points=[[0,0.5],[1,0.5]];portConstraint=eastwest;whiteSpace=wrap;html=1;fontFamily=Helvetica;" vertex="1" parent="JahsXHwQ70RZX7UrnIK1-62">
          <mxGeometry y="168" width="240" height="26" as="geometry" />
        </mxCell>
        <mxCell id="JahsXHwQ70RZX7UrnIK1-70" value="+ discard(card: AbstractCard): void" style="text;strokeColor=none;fillColor=none;align=left;verticalAlign=middle;spacingLeft=4;spacingRight=4;overflow=hidden;rotatable=0;points=[[0,0.5],[1,0.5]];portConstraint=eastwest;whiteSpace=wrap;html=1;fontFamily=Helvetica;" vertex="1" parent="JahsXHwQ70RZX7UrnIK1-62">
          <mxGeometry y="194" width="240" height="26" as="geometry" />
        </mxCell>
        <mxCell id="JahsXHwQ70RZX7UrnIK1-71" value="+ getTopDiscard(): AbstractCard" style="text;strokeColor=none;fillColor=none;align=left;verticalAlign=middle;spacingLeft=4;spacingRight=4;overflow=hidden;rotatable=0;points=[[0,0.5],[1,0.5]];portConstraint=eastwest;whiteSpace=wrap;html=1;fontFamily=Helvetica;" vertex="1" parent="JahsXHwQ70RZX7UrnIK1-62">
          <mxGeometry y="220" width="240" height="26" as="geometry" />
        </mxCell>
        <mxCell id="JahsXHwQ70RZX7UrnIK1-72" value="&lt;div style=&quot;line-height: 150%;&quot;&gt;&lt;div&gt;PlayerHuman&lt;/div&gt;&lt;/div&gt;" style="swimlane;fontStyle=1;align=center;verticalAlign=middle;childLayout=stackLayout;horizontal=1;startSize=30;horizontalStack=0;resizeParent=1;resizeParentMax=0;resizeLast=0;collapsible=1;marginBottom=0;whiteSpace=wrap;html=1;fontFamily=Helvetica;" vertex="1" parent="1">
          <mxGeometry x="2165" y="-138" width="220" height="160" as="geometry" />
        </mxCell>
        <mxCell id="JahsXHwQ70RZX7UrnIK1-73" value="- cards: List&amp;lt;AbstractCard&amp;gt;" style="text;strokeColor=none;fillColor=none;align=left;verticalAlign=middle;spacingLeft=4;spacingRight=4;overflow=hidden;rotatable=0;points=[[0,0.5],[1,0.5]];portConstraint=eastwest;whiteSpace=wrap;html=1;fontFamily=Helvetica;" vertex="1" parent="JahsXHwQ70RZX7UrnIK1-72">
          <mxGeometry y="30" width="220" height="26" as="geometry" />
        </mxCell>
        <mxCell id="JahsXHwQ70RZX7UrnIK1-74" value="- discardPile: List&amp;lt;AbstractCard&amp;gt;" style="text;strokeColor=none;fillColor=none;align=left;verticalAlign=middle;spacingLeft=4;spacingRight=4;overflow=hidden;rotatable=0;points=[[0,0.5],[1,0.5]];portConstraint=eastwest;whiteSpace=wrap;html=1;fontFamily=Helvetica;" vertex="1" parent="JahsXHwQ70RZX7UrnIK1-72">
          <mxGeometry y="56" width="220" height="26" as="geometry" />
        </mxCell>
        <mxCell id="JahsXHwQ70RZX7UrnIK1-75" value="" style="line;strokeWidth=1;fillColor=none;align=left;verticalAlign=middle;spacingTop=-1;spacingLeft=3;spacingRight=3;rotatable=0;labelPosition=right;points=[];portConstraint=eastwest;strokeColor=inherit;fontFamily=Helvetica;" vertex="1" parent="JahsXHwQ70RZX7UrnIK1-72">
          <mxGeometry y="82" width="220" height="8" as="geometry" />
        </mxCell>
        <mxCell id="JahsXHwQ70RZX7UrnIK1-76" value="+ PlayerHuman(name: String)" style="text;strokeColor=none;fillColor=none;align=left;verticalAlign=middle;spacingLeft=4;spacingRight=4;overflow=hidden;rotatable=0;points=[[0,0.5],[1,0.5]];portConstraint=eastwest;whiteSpace=wrap;html=1;fontFamily=Helvetica;" vertex="1" parent="JahsXHwQ70RZX7UrnIK1-72">
          <mxGeometry y="90" width="220" height="26" as="geometry" />
        </mxCell>
        <mxCell id="JahsXHwQ70RZX7UrnIK1-77" value="+ selectCardToPlay(topCard: AbstractCard, currentColor: Colors): int" style="text;strokeColor=none;fillColor=none;align=left;verticalAlign=middle;spacingLeft=4;spacingRight=4;overflow=hidden;rotatable=0;points=[[0,0.5],[1,0.5]];portConstraint=eastwest;whiteSpace=wrap;html=1;spacingTop=1;fontFamily=Helvetica;" vertex="1" parent="JahsXHwQ70RZX7UrnIK1-72">
          <mxGeometry y="116" width="220" height="44" as="geometry" />
        </mxCell>
        <mxCell id="JahsXHwQ70RZX7UrnIK1-78" style="edgeStyle=orthogonalEdgeStyle;rounded=0;orthogonalLoop=1;jettySize=auto;html=1;verticalAlign=middle;fontFamily=Helvetica;" edge="1" parent="1" source="JahsXHwQ70RZX7UrnIK1-47">
          <mxGeometry relative="1" as="geometry">
            <mxPoint x="1495" y="-238" as="targetPoint" />
            <Array as="points">
              <mxPoint x="1375" y="-218" />
              <mxPoint x="1495" y="-218" />
              <mxPoint x="1495" y="-239" />
            </Array>
          </mxGeometry>
        </mxCell>
        <mxCell id="JahsXHwQ70RZX7UrnIK1-79" style="edgeStyle=orthogonalEdgeStyle;rounded=0;orthogonalLoop=1;jettySize=auto;html=1;entryX=0.557;entryY=1.106;entryDx=0;entryDy=0;entryPerimeter=0;verticalAlign=middle;fontFamily=Helvetica;" edge="1" parent="1" source="JahsXHwQ70RZX7UrnIK1-55" target="JahsXHwQ70RZX7UrnIK1-30">
          <mxGeometry relative="1" as="geometry">
            <Array as="points">
              <mxPoint x="1655" y="-218" />
              <mxPoint x="1529" y="-218" />
            </Array>
          </mxGeometry>
        </mxCell>
        <mxCell id="JahsXHwQ70RZX7UrnIK1-80" value="&lt;div style=&quot;line-height: 150%;&quot;&gt;&lt;div&gt;PlayerComputer&lt;/div&gt;&lt;/div&gt;" style="swimlane;fontStyle=1;align=center;verticalAlign=middle;childLayout=stackLayout;horizontal=1;startSize=30;horizontalStack=0;resizeParent=1;resizeParentMax=0;resizeLast=0;collapsible=1;marginBottom=0;whiteSpace=wrap;html=1;fontFamily=Helvetica;" vertex="1" parent="1">
          <mxGeometry x="2405" y="-138" width="260" height="198" as="geometry" />
        </mxCell>
        <mxCell id="JahsXHwQ70RZX7UrnIK1-81" value="- strategy: ComputerStrategy" style="text;strokeColor=none;fillColor=none;align=left;verticalAlign=middle;spacingLeft=4;spacingRight=4;overflow=hidden;rotatable=0;points=[[0,0.5],[1,0.5]];portConstraint=eastwest;whiteSpace=wrap;html=1;fontFamily=Helvetica;" vertex="1" parent="JahsXHwQ70RZX7UrnIK1-80">
          <mxGeometry y="30" width="260" height="26" as="geometry" />
        </mxCell>
        <mxCell id="JahsXHwQ70RZX7UrnIK1-82" value="" style="line;strokeWidth=1;fillColor=none;align=left;verticalAlign=middle;spacingTop=-1;spacingLeft=3;spacingRight=3;rotatable=0;labelPosition=right;points=[];portConstraint=eastwest;strokeColor=inherit;fontFamily=Helvetica;" vertex="1" parent="JahsXHwQ70RZX7UrnIK1-80">
          <mxGeometry y="56" width="260" height="8" as="geometry" />
        </mxCell>
        <mxCell id="JahsXHwQ70RZX7UrnIK1-83" value="+ PlayerComputer(name: String, strategy: ComputerStrategy)" style="text;strokeColor=none;fillColor=none;align=left;verticalAlign=middle;spacingLeft=4;spacingRight=4;overflow=hidden;rotatable=0;points=[[0,0.5],[1,0.5]];portConstraint=eastwest;whiteSpace=wrap;html=1;fontFamily=Helvetica;" vertex="1" parent="JahsXHwQ70RZX7UrnIK1-80">
          <mxGeometry y="64" width="260" height="46" as="geometry" />
        </mxCell>
        <mxCell id="JahsXHwQ70RZX7UrnIK1-84" value="+ selectCardToPlay(topCard: AbstractCard, currentColor: Colors): int" style="text;strokeColor=none;fillColor=none;align=left;verticalAlign=middle;spacingLeft=4;spacingRight=4;overflow=hidden;rotatable=0;points=[[0,0.5],[1,0.5]];portConstraint=eastwest;whiteSpace=wrap;html=1;spacingTop=1;fontFamily=Helvetica;" vertex="1" parent="JahsXHwQ70RZX7UrnIK1-80">
          <mxGeometry y="110" width="260" height="44" as="geometry" />
        </mxCell>
        <mxCell id="JahsXHwQ70RZX7UrnIK1-85" value="+ stepTurn(game: Game): ComputerActionResult" style="text;strokeColor=none;fillColor=none;align=left;verticalAlign=middle;spacingLeft=4;spacingRight=4;overflow=hidden;rotatable=0;points=[[0,0.5],[1,0.5]];portConstraint=eastwest;whiteSpace=wrap;html=1;spacingTop=1;fontFamily=Helvetica;" vertex="1" parent="JahsXHwQ70RZX7UrnIK1-80">
          <mxGeometry y="154" width="260" height="44" as="geometry" />
        </mxCell>
        <mxCell id="JahsXHwQ70RZX7UrnIK1-86" value="Game" style="swimlane;fontStyle=1;align=center;verticalAlign=top;childLayout=stackLayout;horizontal=1;startSize=26;horizontalStack=0;resizeParent=1;resizeParentMax=0;resizeLast=0;collapsible=1;marginBottom=0;whiteSpace=wrap;html=1;" vertex="1" parent="1">
          <mxGeometry x="2805" y="-1572" width="340" height="814" as="geometry" />
        </mxCell>
        <mxCell id="JahsXHwQ70RZX7UrnIK1-87" value="- deck: Deck" style="text;strokeColor=none;fillColor=none;align=left;verticalAlign=top;spacingLeft=4;spacingRight=4;overflow=hidden;rotatable=0;points=[[0,0.5],[1,0.5]];portConstraint=eastwest;whiteSpace=wrap;html=1;" vertex="1" parent="JahsXHwQ70RZX7UrnIK1-86">
          <mxGeometry y="26" width="340" height="26" as="geometry" />
        </mxCell>
        <mxCell id="JahsXHwQ70RZX7UrnIK1-88" value="- players: List&amp;lt;AbstractPlayer&amp;gt;" style="text;strokeColor=none;fillColor=none;align=left;verticalAlign=top;spacingLeft=4;spacingRight=4;overflow=hidden;rotatable=0;points=[[0,0.5],[1,0.5]];portConstraint=eastwest;whiteSpace=wrap;html=1;" vertex="1" parent="JahsXHwQ70RZX7UrnIK1-86">
          <mxGeometry y="52" width="340" height="26" as="geometry" />
        </mxCell>
        <mxCell id="JahsXHwQ70RZX7UrnIK1-89" value="- currentPlayerIndex: int" style="text;strokeColor=none;fillColor=none;align=left;verticalAlign=top;spacingLeft=4;spacingRight=4;overflow=hidden;rotatable=0;points=[[0,0.5],[1,0.5]];portConstraint=eastwest;whiteSpace=wrap;html=1;" vertex="1" parent="JahsXHwQ70RZX7UrnIK1-86">
          <mxGeometry y="78" width="340" height="26" as="geometry" />
        </mxCell>
        <mxCell id="JahsXHwQ70RZX7UrnIK1-90" value="- currentColor: Colors" style="text;strokeColor=none;fillColor=none;align=left;verticalAlign=top;spacingLeft=4;spacingRight=4;overflow=hidden;rotatable=0;points=[[0,0.5],[1,0.5]];portConstraint=eastwest;whiteSpace=wrap;html=1;" vertex="1" parent="JahsXHwQ70RZX7UrnIK1-86">
          <mxGeometry y="104" width="340" height="26" as="geometry" />
        </mxCell>
        <mxCell id="JahsXHwQ70RZX7UrnIK1-91" value="- customTurnIndex: int" style="text;strokeColor=none;fillColor=none;align=left;verticalAlign=top;spacingLeft=4;spacingRight=4;overflow=hidden;rotatable=0;points=[[0,0.5],[1,0.5]];portConstraint=eastwest;whiteSpace=wrap;html=1;" vertex="1" parent="JahsXHwQ70RZX7UrnIK1-86">
          <mxGeometry y="130" width="340" height="26" as="geometry" />
        </mxCell>
        <mxCell id="JahsXHwQ70RZX7UrnIK1-92" value="- customOrderIsClockwise: boolean" style="text;strokeColor=none;fillColor=none;align=left;verticalAlign=top;spacingLeft=4;spacingRight=4;overflow=hidden;rotatable=0;points=[[0,0.5],[1,0.5]];portConstraint=eastwest;whiteSpace=wrap;html=1;" vertex="1" parent="JahsXHwQ70RZX7UrnIK1-86">
          <mxGeometry y="156" width="340" height="26" as="geometry" />
        </mxCell>
        <mxCell id="JahsXHwQ70RZX7UrnIK1-93" value="- lastPlayedCard: AbstractCard" style="text;strokeColor=none;fillColor=none;align=left;verticalAlign=top;spacingLeft=4;spacingRight=4;overflow=hidden;rotatable=0;points=[[0,0.5],[1,0.5]];portConstraint=eastwest;whiteSpace=wrap;html=1;" vertex="1" parent="JahsXHwQ70RZX7UrnIK1-86">
          <mxGeometry y="182" width="340" height="26" as="geometry" />
        </mxCell>
        <mxCell id="JahsXHwQ70RZX7UrnIK1-94" value="- stackedDrawCards: int" style="text;strokeColor=none;fillColor=none;align=left;verticalAlign=top;spacingLeft=4;spacingRight=4;overflow=hidden;rotatable=0;points=[[0,0.5],[1,0.5]];portConstraint=eastwest;whiteSpace=wrap;html=1;" vertex="1" parent="JahsXHwQ70RZX7UrnIK1-86">
          <mxGeometry y="208" width="340" height="26" as="geometry" />
        </mxCell>
        <mxCell id="JahsXHwQ70RZX7UrnIK1-95" value="" style="line;strokeWidth=1;fillColor=none;align=left;verticalAlign=middle;spacingTop=-1;spacingLeft=3;spacingRight=3;rotatable=0;labelPosition=right;points=[];portConstraint=eastwest;strokeColor=inherit;" vertex="1" parent="JahsXHwQ70RZX7UrnIK1-86">
          <mxGeometry y="234" width="340" height="8" as="geometry" />
        </mxCell>
        <mxCell id="JahsXHwQ70RZX7UrnIK1-96" value="+ Game(numPlayers: int)" style="text;strokeColor=none;fillColor=none;align=left;verticalAlign=top;spacingLeft=4;spacingRight=4;overflow=hidden;rotatable=0;points=[[0,0.5],[1,0.5]];portConstraint=eastwest;whiteSpace=wrap;html=1;" vertex="1" parent="JahsXHwQ70RZX7UrnIK1-86">
          <mxGeometry y="242" width="340" height="26" as="geometry" />
        </mxCell>
        <mxCell id="JahsXHwQ70RZX7UrnIK1-97" value="+ getCurrentPlayer(): AbstractPlayer" style="text;strokeColor=none;fillColor=none;align=left;verticalAlign=top;spacingLeft=4;spacingRight=4;overflow=hidden;rotatable=0;points=[[0,0.5],[1,0.5]];portConstraint=eastwest;whiteSpace=wrap;html=1;" vertex="1" parent="JahsXHwQ70RZX7UrnIK1-86">
          <mxGeometry y="268" width="340" height="26" as="geometry" />
        </mxCell>
        <mxCell id="JahsXHwQ70RZX7UrnIK1-98" value="+ getCurrentPlayerIndex(): int" style="text;strokeColor=none;fillColor=none;align=left;verticalAlign=top;spacingLeft=4;spacingRight=4;overflow=hidden;rotatable=0;points=[[0,0.5],[1,0.5]];portConstraint=eastwest;whiteSpace=wrap;html=1;" vertex="1" parent="JahsXHwQ70RZX7UrnIK1-86">
          <mxGeometry y="294" width="340" height="26" as="geometry" />
        </mxCell>
        <mxCell id="JahsXHwQ70RZX7UrnIK1-99" value="+ getTopCard(): AbstractCard" style="text;strokeColor=none;fillColor=none;align=left;verticalAlign=top;spacingLeft=4;spacingRight=4;overflow=hidden;rotatable=0;points=[[0,0.5],[1,0.5]];portConstraint=eastwest;whiteSpace=wrap;html=1;" vertex="1" parent="JahsXHwQ70RZX7UrnIK1-86">
          <mxGeometry y="320" width="340" height="26" as="geometry" />
        </mxCell>
        <mxCell id="JahsXHwQ70RZX7UrnIK1-100" value="+ getLastPlayedCard(): AbstractCard" style="text;strokeColor=none;fillColor=none;align=left;verticalAlign=top;spacingLeft=4;spacingRight=4;overflow=hidden;rotatable=0;points=[[0,0.5],[1,0.5]];portConstraint=eastwest;whiteSpace=wrap;html=1;" vertex="1" parent="JahsXHwQ70RZX7UrnIK1-86">
          <mxGeometry y="346" width="340" height="26" as="geometry" />
        </mxCell>
        <mxCell id="JahsXHwQ70RZX7UrnIK1-101" value="+ isPlayersTurn(playerIndex: int): boolean" style="text;strokeColor=none;fillColor=none;align=left;verticalAlign=top;spacingLeft=4;spacingRight=4;overflow=hidden;rotatable=0;points=[[0,0.5],[1,0.5]];portConstraint=eastwest;whiteSpace=wrap;html=1;" vertex="1" parent="JahsXHwQ70RZX7UrnIK1-86">
          <mxGeometry y="372" width="340" height="26" as="geometry" />
        </mxCell>
        <mxCell id="JahsXHwQ70RZX7UrnIK1-102" value="+ playWildCard(cardIndex: int, chosenColor: Colors): boolean" style="text;strokeColor=none;fillColor=none;align=left;verticalAlign=top;spacingLeft=4;spacingRight=4;overflow=hidden;rotatable=0;points=[[0,0.5],[1,0.5]];portConstraint=eastwest;whiteSpace=wrap;html=1;" vertex="1" parent="JahsXHwQ70RZX7UrnIK1-86">
          <mxGeometry y="398" width="340" height="26" as="geometry" />
        </mxCell>
        <mxCell id="JahsXHwQ70RZX7UrnIK1-103" value="+ playerDrawCard(playerIndex: int): void" style="text;strokeColor=none;fillColor=none;align=left;verticalAlign=top;spacingLeft=4;spacingRight=4;overflow=hidden;rotatable=0;points=[[0,0.5],[1,0.5]];portConstraint=eastwest;whiteSpace=wrap;html=1;" vertex="1" parent="JahsXHwQ70RZX7UrnIK1-86">
          <mxGeometry y="424" width="340" height="26" as="geometry" />
        </mxCell>
        <mxCell id="JahsXHwQ70RZX7UrnIK1-104" value="+ getCurrentColor(): Colors" style="text;strokeColor=none;fillColor=none;align=left;verticalAlign=top;spacingLeft=4;spacingRight=4;overflow=hidden;rotatable=0;points=[[0,0.5],[1,0.5]];portConstraint=eastwest;whiteSpace=wrap;html=1;" vertex="1" parent="JahsXHwQ70RZX7UrnIK1-86">
          <mxGeometry y="450" width="340" height="26" as="geometry" />
        </mxCell>
        <mxCell id="JahsXHwQ70RZX7UrnIK1-105" value="+ isCustomOrderClockwise(): boolean" style="text;strokeColor=none;fillColor=none;align=left;verticalAlign=top;spacingLeft=4;spacingRight=4;overflow=hidden;rotatable=0;points=[[0,0.5],[1,0.5]];portConstraint=eastwest;whiteSpace=wrap;html=1;" vertex="1" parent="JahsXHwQ70RZX7UrnIK1-86">
          <mxGeometry y="476" width="340" height="26" as="geometry" />
        </mxCell>
        <mxCell id="JahsXHwQ70RZX7UrnIK1-106" value="+ getPlayers(): List&amp;lt;AbstractPlayer&amp;gt;" style="text;strokeColor=none;fillColor=none;align=left;verticalAlign=top;spacingLeft=4;spacingRight=4;overflow=hidden;rotatable=0;points=[[0,0.5],[1,0.5]];portConstraint=eastwest;whiteSpace=wrap;html=1;" vertex="1" parent="JahsXHwQ70RZX7UrnIK1-86">
          <mxGeometry y="502" width="340" height="26" as="geometry" />
        </mxCell>
        <mxCell id="JahsXHwQ70RZX7UrnIK1-107" value="+ getWinner(): AbstractPlayer" style="text;strokeColor=none;fillColor=none;align=left;verticalAlign=top;spacingLeft=4;spacingRight=4;overflow=hidden;rotatable=0;points=[[0,0.5],[1,0.5]];portConstraint=eastwest;whiteSpace=wrap;html=1;" vertex="1" parent="JahsXHwQ70RZX7UrnIK1-86">
          <mxGeometry y="528" width="340" height="26" as="geometry" />
        </mxCell>
        <mxCell id="JahsXHwQ70RZX7UrnIK1-108" value="+ getUnoPlayer(): AbstractPlayer" style="text;strokeColor=none;fillColor=none;align=left;verticalAlign=top;spacingLeft=4;spacingRight=4;overflow=hidden;rotatable=0;points=[[0,0.5],[1,0.5]];portConstraint=eastwest;whiteSpace=wrap;html=1;" vertex="1" parent="JahsXHwQ70RZX7UrnIK1-86">
          <mxGeometry y="554" width="340" height="26" as="geometry" />
        </mxCell>
        <mxCell id="JahsXHwQ70RZX7UrnIK1-109" value="+ setCurrentColor(color: Colors): void" style="text;strokeColor=none;fillColor=none;align=left;verticalAlign=top;spacingLeft=4;spacingRight=4;overflow=hidden;rotatable=0;points=[[0,0.5],[1,0.5]];portConstraint=eastwest;whiteSpace=wrap;html=1;" vertex="1" parent="JahsXHwQ70RZX7UrnIK1-86">
          <mxGeometry y="580" width="340" height="26" as="geometry" />
        </mxCell>
        <mxCell id="JahsXHwQ70RZX7UrnIK1-110" value="+ playCard(cardIndex: int): boolean" style="text;strokeColor=none;fillColor=none;align=left;verticalAlign=top;spacingLeft=4;spacingRight=4;overflow=hidden;rotatable=0;points=[[0,0.5],[1,0.5]];portConstraint=eastwest;whiteSpace=wrap;html=1;" vertex="1" parent="JahsXHwQ70RZX7UrnIK1-86">
          <mxGeometry y="606" width="340" height="26" as="geometry" />
        </mxCell>
        <mxCell id="JahsXHwQ70RZX7UrnIK1-111" value="+ drawCard(): AbstractCard" style="text;strokeColor=none;fillColor=none;align=left;verticalAlign=top;spacingLeft=4;spacingRight=4;overflow=hidden;rotatable=0;points=[[0,0.5],[1,0.5]];portConstraint=eastwest;whiteSpace=wrap;html=1;" vertex="1" parent="JahsXHwQ70RZX7UrnIK1-86">
          <mxGeometry y="632" width="340" height="26" as="geometry" />
        </mxCell>
        <mxCell id="JahsXHwQ70RZX7UrnIK1-112" value="+ handleWildColorSelection(color: Colors): void" style="text;strokeColor=none;fillColor=none;align=left;verticalAlign=top;spacingLeft=4;spacingRight=4;overflow=hidden;rotatable=0;points=[[0,0.5],[1,0.5]];portConstraint=eastwest;whiteSpace=wrap;html=1;" vertex="1" parent="JahsXHwQ70RZX7UrnIK1-86">
          <mxGeometry y="658" width="340" height="26" as="geometry" />
        </mxCell>
        <mxCell id="JahsXHwQ70RZX7UrnIK1-113" value="+ nextPlayer(): void" style="text;strokeColor=none;fillColor=none;align=left;verticalAlign=top;spacingLeft=4;spacingRight=4;overflow=hidden;rotatable=0;points=[[0,0.5],[1,0.5]];portConstraint=eastwest;whiteSpace=wrap;html=1;" vertex="1" parent="JahsXHwQ70RZX7UrnIK1-86">
          <mxGeometry y="684" width="340" height="26" as="geometry" />
        </mxCell>
        <mxCell id="JahsXHwQ70RZX7UrnIK1-114" value="+ handleGameRulesAfterTurn(): void" style="text;strokeColor=none;fillColor=none;align=left;verticalAlign=top;spacingLeft=4;spacingRight=4;overflow=hidden;rotatable=0;points=[[0,0.5],[1,0.5]];portConstraint=eastwest;whiteSpace=wrap;html=1;" vertex="1" parent="JahsXHwQ70RZX7UrnIK1-86">
          <mxGeometry y="710" width="340" height="26" as="geometry" />
        </mxCell>
        <mxCell id="JahsXHwQ70RZX7UrnIK1-115" value="+ canCurrentPlayerStackDraw(): boolean" style="text;strokeColor=none;fillColor=none;align=left;verticalAlign=top;spacingLeft=4;spacingRight=4;overflow=hidden;rotatable=0;points=[[0,0.5],[1,0.5]];portConstraint=eastwest;whiteSpace=wrap;html=1;" vertex="1" parent="JahsXHwQ70RZX7UrnIK1-86">
          <mxGeometry y="736" width="340" height="26" as="geometry" />
        </mxCell>
        <mxCell id="JahsXHwQ70RZX7UrnIK1-116" value="+ getActionDescription(card: AbstractCard): String" style="text;strokeColor=none;fillColor=none;align=left;verticalAlign=top;spacingLeft=4;spacingRight=4;overflow=hidden;rotatable=0;points=[[0,0.5],[1,0.5]];portConstraint=eastwest;whiteSpace=wrap;html=1;" vertex="1" parent="JahsXHwQ70RZX7UrnIK1-86">
          <mxGeometry y="762" width="340" height="26" as="geometry" />
        </mxCell>
        <mxCell id="JahsXHwQ70RZX7UrnIK1-117" value="+ getRandomColorExcept(exclude: Colors): Colors" style="text;strokeColor=none;fillColor=none;align=left;verticalAlign=top;spacingLeft=4;spacingRight=4;overflow=hidden;rotatable=0;points=[[0,0.5],[1,0.5]];portConstraint=eastwest;whiteSpace=wrap;html=1;" vertex="1" parent="JahsXHwQ70RZX7UrnIK1-86">
          <mxGeometry y="788" width="340" height="26" as="geometry" />
        </mxCell>
        <mxCell id="JahsXHwQ70RZX7UrnIK1-118" value="&lt;div style=&quot;line-height: 150%;&quot;&gt;&lt;div&gt;Launcher&lt;/div&gt;&lt;/div&gt;" style="swimlane;fontStyle=1;align=center;verticalAlign=middle;childLayout=stackLayout;horizontal=1;startSize=30;horizontalStack=0;resizeParent=1;resizeParentMax=0;resizeLast=0;collapsible=1;marginBottom=0;whiteSpace=wrap;html=1;fontFamily=Helvetica;" vertex="1" parent="1">
          <mxGeometry x="1205" y="-1468" width="240" height="90" as="geometry" />
        </mxCell>
        <mxCell id="JahsXHwQ70RZX7UrnIK1-119" value="" style="line;strokeWidth=1;fillColor=none;align=left;verticalAlign=middle;spacingTop=-1;spacingLeft=3;spacingRight=3;rotatable=0;labelPosition=right;points=[];portConstraint=eastwest;strokeColor=inherit;fontFamily=Helvetica;" vertex="1" parent="JahsXHwQ70RZX7UrnIK1-118">
          <mxGeometry y="30" width="240" height="8" as="geometry" />
        </mxCell>
        <mxCell id="JahsXHwQ70RZX7UrnIK1-120" value="+ main(args): void&amp;nbsp;" style="text;strokeColor=none;fillColor=none;align=left;verticalAlign=middle;spacingLeft=4;spacingRight=4;overflow=hidden;rotatable=0;points=[[0,0.5],[1,0.5]];portConstraint=eastwest;whiteSpace=wrap;html=1;fontFamily=Helvetica;" vertex="1" parent="JahsXHwQ70RZX7UrnIK1-118">
          <mxGeometry y="38" width="240" height="26" as="geometry" />
        </mxCell>
        <mxCell id="JahsXHwQ70RZX7UrnIK1-121" value="+ start(Stage)" style="text;strokeColor=none;fillColor=none;align=left;verticalAlign=middle;spacingLeft=4;spacingRight=4;overflow=hidden;rotatable=0;points=[[0,0.5],[1,0.5]];portConstraint=eastwest;whiteSpace=wrap;html=1;fontFamily=Helvetica;" vertex="1" parent="JahsXHwQ70RZX7UrnIK1-118">
          <mxGeometry y="64" width="240" height="26" as="geometry" />
        </mxCell>
        <mxCell id="JahsXHwQ70RZX7UrnIK1-122" style="edgeStyle=orthogonalEdgeStyle;rounded=0;orthogonalLoop=1;jettySize=auto;html=1;entryX=0.25;entryY=0;entryDx=0;entryDy=0;" edge="1" parent="1" source="JahsXHwQ70RZX7UrnIK1-123" target="JahsXHwQ70RZX7UrnIK1-80">
          <mxGeometry relative="1" as="geometry" />
        </mxCell>
        <mxCell id="JahsXHwQ70RZX7UrnIK1-123" value="&lt;div style=&quot;line-height: 150%;&quot;&gt;&lt;div&gt;PlayerFactory&lt;/div&gt;&lt;/div&gt;" style="swimlane;fontStyle=1;align=center;verticalAlign=middle;childLayout=stackLayout;horizontal=1;startSize=30;horizontalStack=0;resizeParent=1;resizeParentMax=0;resizeLast=0;collapsible=1;marginBottom=0;whiteSpace=wrap;html=1;fontFamily=Helvetica;" vertex="1" parent="1">
          <mxGeometry x="2165" y="-328" width="280" height="142" as="geometry" />
        </mxCell>
        <mxCell id="JahsXHwQ70RZX7UrnIK1-124" value="- COMPUTER_TYPES: String[]" style="text;strokeColor=none;fillColor=none;align=left;verticalAlign=middle;spacingLeft=4;spacingRight=4;overflow=hidden;rotatable=0;points=[[0,0.5],[1,0.5]];portConstraint=eastwest;whiteSpace=wrap;html=1;fontFamily=Helvetica;" vertex="1" parent="JahsXHwQ70RZX7UrnIK1-123">
          <mxGeometry y="30" width="280" height="26" as="geometry" />
        </mxCell>
        <mxCell id="JahsXHwQ70RZX7UrnIK1-125" value="- random: Random" style="text;strokeColor=none;fillColor=none;align=left;verticalAlign=middle;spacingLeft=4;spacingRight=4;overflow=hidden;rotatable=0;points=[[0,0.5],[1,0.5]];portConstraint=eastwest;whiteSpace=wrap;html=1;fontFamily=Helvetica;" vertex="1" parent="JahsXHwQ70RZX7UrnIK1-123">
          <mxGeometry y="56" width="280" height="26" as="geometry" />
        </mxCell>
        <mxCell id="JahsXHwQ70RZX7UrnIK1-126" value="" style="line;strokeWidth=1;fillColor=none;align=left;verticalAlign=middle;spacingTop=-1;spacingLeft=3;spacingRight=3;rotatable=0;labelPosition=right;points=[];portConstraint=eastwest;strokeColor=inherit;fontFamily=Helvetica;" vertex="1" parent="JahsXHwQ70RZX7UrnIK1-123">
          <mxGeometry y="82" width="280" height="8" as="geometry" />
        </mxCell>
        <mxCell id="JahsXHwQ70RZX7UrnIK1-127" value="+ createPlayer(type, name): AbstractPlayer" style="text;strokeColor=none;fillColor=none;align=left;verticalAlign=middle;spacingLeft=4;spacingRight=4;overflow=hidden;rotatable=0;points=[[0,0.5],[1,0.5]];portConstraint=eastwest;whiteSpace=wrap;html=1;fontFamily=Helvetica;" vertex="1" parent="JahsXHwQ70RZX7UrnIK1-123">
          <mxGeometry y="90" width="280" height="26" as="geometry" />
        </mxCell>
        <mxCell id="JahsXHwQ70RZX7UrnIK1-128" value="+ getRandomComputerType(): String&amp;nbsp;" style="text;strokeColor=none;fillColor=none;align=left;verticalAlign=middle;spacingLeft=4;spacingRight=4;overflow=hidden;rotatable=0;points=[[0,0.5],[1,0.5]];portConstraint=eastwest;whiteSpace=wrap;html=1;fontFamily=Helvetica;" vertex="1" parent="JahsXHwQ70RZX7UrnIK1-123">
          <mxGeometry y="116" width="280" height="26" as="geometry" />
        </mxCell>
        <mxCell id="JahsXHwQ70RZX7UrnIK1-129" value="&lt;div style=&quot;line-height: 150%;&quot;&gt;&lt;div&gt;StrategyFactory&lt;/div&gt;&lt;/div&gt;" style="swimlane;fontStyle=1;align=center;verticalAlign=middle;childLayout=stackLayout;horizontal=1;startSize=30;horizontalStack=0;resizeParent=1;resizeParentMax=0;resizeLast=0;collapsible=1;marginBottom=0;whiteSpace=wrap;html=1;fontFamily=Helvetica;" vertex="1" parent="1">
          <mxGeometry x="1805" y="-328" width="280" height="64" as="geometry" />
        </mxCell>
        <mxCell id="JahsXHwQ70RZX7UrnIK1-130" value="" style="line;strokeWidth=1;fillColor=none;align=left;verticalAlign=middle;spacingTop=-1;spacingLeft=3;spacingRight=3;rotatable=0;labelPosition=right;points=[];portConstraint=eastwest;strokeColor=inherit;fontFamily=Helvetica;" vertex="1" parent="JahsXHwQ70RZX7UrnIK1-129">
          <mxGeometry y="30" width="280" height="8" as="geometry" />
        </mxCell>
        <mxCell id="JahsXHwQ70RZX7UrnIK1-131" value="+ createStrategy(type): ComputerStrategy" style="text;strokeColor=none;fillColor=none;align=left;verticalAlign=middle;spacingLeft=4;spacingRight=4;overflow=hidden;rotatable=0;points=[[0,0.5],[1,0.5]];portConstraint=eastwest;whiteSpace=wrap;html=1;fontFamily=Helvetica;" vertex="1" parent="JahsXHwQ70RZX7UrnIK1-129">
          <mxGeometry y="38" width="280" height="26" as="geometry" />
        </mxCell>
        <mxCell id="JahsXHwQ70RZX7UrnIK1-132" value="&lt;div style=&quot;line-height: 150%;&quot;&gt;&lt;b&gt;AggresiveStrategy&lt;/b&gt;&lt;/div&gt;" style="swimlane;fontStyle=0;childLayout=stackLayout;horizontal=1;startSize=32;horizontalStack=0;resizeParent=1;resizeParentMax=0;resizeLast=0;collapsible=1;marginBottom=0;whiteSpace=wrap;html=1;verticalAlign=middle;fontFamily=Helvetica;" vertex="1" parent="1">
          <mxGeometry x="1975" y="-48" width="110" height="50" as="geometry" />
        </mxCell>
        <mxCell id="JahsXHwQ70RZX7UrnIK1-133" value="&lt;div style=&quot;line-height: 150%;&quot;&gt;&lt;b&gt;DefensiveStrategy&lt;/b&gt;&lt;/div&gt;" style="swimlane;fontStyle=0;childLayout=stackLayout;horizontal=1;startSize=30;horizontalStack=0;resizeParent=1;resizeParentMax=0;resizeLast=0;collapsible=1;marginBottom=0;whiteSpace=wrap;html=1;verticalAlign=middle;fontFamily=Helvetica;" vertex="1" parent="1">
          <mxGeometry x="1805" y="-48" width="110" height="50" as="geometry" />
        </mxCell>
        <mxCell id="JahsXHwQ70RZX7UrnIK1-134" value="&lt;div style=&quot;line-height: 150%;&quot;&gt;NormalStrategy&lt;/div&gt;" style="swimlane;fontStyle=1;childLayout=stackLayout;horizontal=1;startSize=30;horizontalStack=0;resizeParent=1;resizeParentMax=0;resizeLast=0;collapsible=1;marginBottom=0;whiteSpace=wrap;html=1;verticalAlign=middle;fontFamily=Helvetica;" vertex="1" parent="1">
          <mxGeometry x="1880" y="18" width="130" height="44" as="geometry" />
        </mxCell>
        <mxCell id="JahsXHwQ70RZX7UrnIK1-135" style="edgeStyle=orthogonalEdgeStyle;rounded=0;orthogonalLoop=1;jettySize=auto;html=1;entryX=0.308;entryY=1;entryDx=0;entryDy=0;entryPerimeter=0;dashed=1;" edge="1" parent="1" source="JahsXHwQ70RZX7UrnIK1-133" target="JahsXHwQ70RZX7UrnIK1-46">
          <mxGeometry relative="1" as="geometry">
            <Array as="points">
              <mxPoint x="1891" y="-38" />
              <mxPoint x="1891" y="-38" />
            </Array>
          </mxGeometry>
        </mxCell>
        <mxCell id="JahsXHwQ70RZX7UrnIK1-136" style="edgeStyle=orthogonalEdgeStyle;rounded=0;orthogonalLoop=1;jettySize=auto;html=1;entryX=0.686;entryY=1.012;entryDx=0;entryDy=0;entryPerimeter=0;dashed=1;" edge="1" parent="1" source="JahsXHwQ70RZX7UrnIK1-132" target="JahsXHwQ70RZX7UrnIK1-46">
          <mxGeometry relative="1" as="geometry">
            <Array as="points">
              <mxPoint x="1997" y="-38" />
              <mxPoint x="1997" y="-38" />
            </Array>
          </mxGeometry>
        </mxCell>
        <mxCell id="JahsXHwQ70RZX7UrnIK1-137" style="edgeStyle=orthogonalEdgeStyle;rounded=0;orthogonalLoop=1;jettySize=auto;html=1;entryX=0.497;entryY=1.022;entryDx=0;entryDy=0;entryPerimeter=0;dashed=1;" edge="1" parent="1" source="JahsXHwQ70RZX7UrnIK1-134" target="JahsXHwQ70RZX7UrnIK1-46">
          <mxGeometry relative="1" as="geometry">
            <Array as="points">
              <mxPoint x="1945" y="-2" />
              <mxPoint x="1944" y="-2" />
            </Array>
          </mxGeometry>
        </mxCell>
        <mxCell id="JahsXHwQ70RZX7UrnIK1-138" style="edgeStyle=orthogonalEdgeStyle;rounded=0;orthogonalLoop=1;jettySize=auto;html=1;entryX=0.696;entryY=0.011;entryDx=0;entryDy=0;entryPerimeter=0;" edge="1" parent="1" source="JahsXHwQ70RZX7UrnIK1-31" target="JahsXHwQ70RZX7UrnIK1-123">
          <mxGeometry relative="1" as="geometry">
            <Array as="points">
              <mxPoint x="2360" y="-358" />
              <mxPoint x="2360" y="-358" />
            </Array>
          </mxGeometry>
        </mxCell>
        <mxCell id="JahsXHwQ70RZX7UrnIK1-139" style="edgeStyle=orthogonalEdgeStyle;rounded=0;orthogonalLoop=1;jettySize=auto;html=1;entryX=0.002;entryY=0.117;entryDx=0;entryDy=0;entryPerimeter=0;" edge="1" parent="1" source="JahsXHwQ70RZX7UrnIK1-129" target="JahsXHwQ70RZX7UrnIK1-123">
          <mxGeometry relative="1" as="geometry">
            <Array as="points">
              <mxPoint x="2115" y="-311" />
            </Array>
          </mxGeometry>
        </mxCell>
        <mxCell id="JahsXHwQ70RZX7UrnIK1-140" style="edgeStyle=orthogonalEdgeStyle;rounded=0;orthogonalLoop=1;jettySize=auto;html=1;" edge="1" parent="1" source="JahsXHwQ70RZX7UrnIK1-123">
          <mxGeometry relative="1" as="geometry">
            <mxPoint x="2285" y="-138" as="targetPoint" />
            <Array as="points">
              <mxPoint x="2285" y="-139" />
            </Array>
          </mxGeometry>
        </mxCell>
        <mxCell id="JahsXHwQ70RZX7UrnIK1-141" value="Game" style="swimlane;fontStyle=1;align=center;verticalAlign=top;childLayout=stackLayout;horizontal=1;startSize=40;horizontalStack=0;resizeParent=1;resizeParentMax=0;resizeLast=0;collapsible=1;marginBottom=0;whiteSpace=wrap;html=1;fontSize=20;" vertex="1" parent="1">
          <mxGeometry x="2805" y="-728" width="710" height="1400" as="geometry" />
        </mxCell>
        <mxCell id="JahsXHwQ70RZX7UrnIK1-142" value="- playerHand: HBox&lt;span style=&quot;white-space: pre;&quot;&gt;&#x9;&lt;/span&gt;" style="text;strokeColor=none;fillColor=none;align=left;verticalAlign=top;spacingLeft=4;spacingRight=4;overflow=hidden;rotatable=0;points=[[0,0.5],[1,0.5]];portConstraint=eastwest;whiteSpace=wrap;html=1;" vertex="1" parent="JahsXHwQ70RZX7UrnIK1-141">
          <mxGeometry y="40" width="710" height="26" as="geometry" />
        </mxCell>
        <mxCell id="JahsXHwQ70RZX7UrnIK1-143" value="- playerHandCount: Label" style="text;strokeColor=none;fillColor=none;align=left;verticalAlign=top;spacingLeft=4;spacingRight=4;overflow=hidden;rotatable=0;points=[[0,0.5],[1,0.5]];portConstraint=eastwest;whiteSpace=wrap;html=1;" vertex="1" parent="JahsXHwQ70RZX7UrnIK1-141">
          <mxGeometry y="66" width="710" height="26" as="geometry" />
        </mxCell>
        <mxCell id="JahsXHwQ70RZX7UrnIK1-144" value="- discardPileView: ImageView" style="text;strokeColor=none;fillColor=none;align=left;verticalAlign=top;spacingLeft=4;spacingRight=4;overflow=hidden;rotatable=0;points=[[0,0.5],[1,0.5]];portConstraint=eastwest;whiteSpace=wrap;html=1;" vertex="1" parent="JahsXHwQ70RZX7UrnIK1-141">
          <mxGeometry y="92" width="710" height="26" as="geometry" />
        </mxCell>
        <mxCell id="JahsXHwQ70RZX7UrnIK1-145" value="- drawPileView: ImageView" style="text;strokeColor=none;fillColor=none;align=left;verticalAlign=top;spacingLeft=4;spacingRight=4;overflow=hidden;rotatable=0;points=[[0,0.5],[1,0.5]];portConstraint=eastwest;whiteSpace=wrap;html=1;" vertex="1" parent="JahsXHwQ70RZX7UrnIK1-141">
          <mxGeometry y="118" width="710" height="26" as="geometry" />
        </mxCell>
        <mxCell id="JahsXHwQ70RZX7UrnIK1-146" value="- statusLabel: Label" style="text;strokeColor=none;fillColor=none;align=left;verticalAlign=top;spacingLeft=4;spacingRight=4;overflow=hidden;rotatable=0;points=[[0,0.5],[1,0.5]];portConstraint=eastwest;whiteSpace=wrap;html=1;" vertex="1" parent="JahsXHwQ70RZX7UrnIK1-141">
          <mxGeometry y="144" width="710" height="26" as="geometry" />
        </mxCell>
        <mxCell id="JahsXHwQ70RZX7UrnIK1-147" value="- notificationArea: StackPane" style="text;strokeColor=none;fillColor=none;align=left;verticalAlign=top;spacingLeft=4;spacingRight=4;overflow=hidden;rotatable=0;points=[[0,0.5],[1,0.5]];portConstraint=eastwest;whiteSpace=wrap;html=1;" vertex="1" parent="JahsXHwQ70RZX7UrnIK1-141">
          <mxGeometry y="170" width="710" height="26" as="geometry" />
        </mxCell>
        <mxCell id="JahsXHwQ70RZX7UrnIK1-148" value="- rootBorderPane: BorderPane" style="text;strokeColor=none;fillColor=none;align=left;verticalAlign=top;spacingLeft=4;spacingRight=4;overflow=hidden;rotatable=0;points=[[0,0.5],[1,0.5]];portConstraint=eastwest;whiteSpace=wrap;html=1;" vertex="1" parent="JahsXHwQ70RZX7UrnIK1-141">
          <mxGeometry y="196" width="710" height="26" as="geometry" />
        </mxCell>
        <mxCell id="JahsXHwQ70RZX7UrnIK1-149" value="- opponent1Hand, opponent2Hand, opponent3Hand: HBox" style="text;strokeColor=none;fillColor=none;align=left;verticalAlign=top;spacingLeft=4;spacingRight=4;overflow=hidden;rotatable=0;points=[[0,0.5],[1,0.5]];portConstraint=eastwest;whiteSpace=wrap;html=1;" vertex="1" parent="JahsXHwQ70RZX7UrnIK1-141">
          <mxGeometry y="222" width="710" height="26" as="geometry" />
        </mxCell>
        <mxCell id="JahsXHwQ70RZX7UrnIK1-150" value="- opponent4Hand, opponent5Hand: VBox" style="text;strokeColor=none;fillColor=none;align=left;verticalAlign=top;spacingLeft=4;spacingRight=4;overflow=hidden;rotatable=0;points=[[0,0.5],[1,0.5]];portConstraint=eastwest;whiteSpace=wrap;html=1;" vertex="1" parent="JahsXHwQ70RZX7UrnIK1-141">
          <mxGeometry y="248" width="710" height="26" as="geometry" />
        </mxCell>
        <mxCell id="JahsXHwQ70RZX7UrnIK1-151" value="&lt;span style=&quot;font-size: 12px;&quot;&gt;- opponent1Name, opponent2Name, opponent3Name, opponent4Name, opponent5Name: Label&lt;/span&gt;" style="text;strokeColor=none;fillColor=none;align=left;verticalAlign=top;spacingLeft=4;spacingRight=4;overflow=hidden;rotatable=0;points=[[0,0.5],[1,0.5]];portConstraint=eastwest;whiteSpace=wrap;html=1;" vertex="1" parent="JahsXHwQ70RZX7UrnIK1-141">
          <mxGeometry y="274" width="710" height="26" as="geometry" />
        </mxCell>
        <mxCell id="JahsXHwQ70RZX7UrnIK1-152" value="- opponent1HandCount, opponent2HandCount, opponent3HandCount, opponent4HandCount, opponent5HandCount: Label" style="text;strokeColor=none;fillColor=none;align=left;verticalAlign=top;spacingLeft=4;spacingRight=4;overflow=hidden;rotatable=0;points=[[0,0.5],[1,0.5]];portConstraint=eastwest;whiteSpace=wrap;html=1;" vertex="1" parent="JahsXHwQ70RZX7UrnIK1-141">
          <mxGeometry y="300" width="710" height="26" as="geometry" />
        </mxCell>
        <mxCell id="JahsXHwQ70RZX7UrnIK1-153" value="- direction: Label" style="text;strokeColor=none;fillColor=none;align=left;verticalAlign=top;spacingLeft=4;spacingRight=4;overflow=hidden;rotatable=0;points=[[0,0.5],[1,0.5]];portConstraint=eastwest;whiteSpace=wrap;html=1;" vertex="1" parent="JahsXHwQ70RZX7UrnIK1-141">
          <mxGeometry y="326" width="710" height="26" as="geometry" />
        </mxCell>
        <mxCell id="JahsXHwQ70RZX7UrnIK1-154" value="- prev_move_Label: Label" style="text;strokeColor=none;fillColor=none;align=left;verticalAlign=top;spacingLeft=4;spacingRight=4;overflow=hidden;rotatable=0;points=[[0,0.5],[1,0.5]];portConstraint=eastwest;whiteSpace=wrap;html=1;" vertex="1" parent="JahsXHwQ70RZX7UrnIK1-141">
          <mxGeometry y="352" width="710" height="26" as="geometry" />
        </mxCell>
        <mxCell id="JahsXHwQ70RZX7UrnIK1-155" value="- playerLabel: Label" style="text;strokeColor=none;fillColor=none;align=left;verticalAlign=top;spacingLeft=4;spacingRight=4;overflow=hidden;rotatable=0;points=[[0,0.5],[1,0.5]];portConstraint=eastwest;whiteSpace=wrap;html=1;" vertex="1" parent="JahsXHwQ70RZX7UrnIK1-141">
          <mxGeometry y="378" width="710" height="26" as="geometry" />
        </mxCell>
        <mxCell id="JahsXHwQ70RZX7UrnIK1-156" value="- game: Game" style="text;strokeColor=none;fillColor=none;align=left;verticalAlign=top;spacingLeft=4;spacingRight=4;overflow=hidden;rotatable=0;points=[[0,0.5],[1,0.5]];portConstraint=eastwest;whiteSpace=wrap;html=1;" vertex="1" parent="JahsXHwQ70RZX7UrnIK1-141">
          <mxGeometry y="404" width="710" height="26" as="geometry" />
        </mxCell>
        <mxCell id="JahsXHwQ70RZX7UrnIK1-157" value="- computerPlayerTimer: ScheduledExecutorService" style="text;strokeColor=none;fillColor=none;align=left;verticalAlign=top;spacingLeft=4;spacingRight=4;overflow=hidden;rotatable=0;points=[[0,0.5],[1,0.5]];portConstraint=eastwest;whiteSpace=wrap;html=1;" vertex="1" parent="JahsXHwQ70RZX7UrnIK1-141">
          <mxGeometry y="430" width="710" height="26" as="geometry" />
        </mxCell>
        <mxCell id="JahsXHwQ70RZX7UrnIK1-158" value="- isFirstTurn: boolean" style="text;strokeColor=none;fillColor=none;align=left;verticalAlign=top;spacingLeft=4;spacingRight=4;overflow=hidden;rotatable=0;points=[[0,0.5],[1,0.5]];portConstraint=eastwest;whiteSpace=wrap;html=1;" vertex="1" parent="JahsXHwQ70RZX7UrnIK1-141">
          <mxGeometry y="456" width="710" height="26" as="geometry" />
        </mxCell>
        <mxCell id="JahsXHwQ70RZX7UrnIK1-159" value="- isSingleplayer: boolean" style="text;strokeColor=none;fillColor=none;align=left;verticalAlign=top;spacingLeft=4;spacingRight=4;overflow=hidden;rotatable=0;points=[[0,0.5],[1,0.5]];portConstraint=eastwest;whiteSpace=wrap;html=1;" vertex="1" parent="JahsXHwQ70RZX7UrnIK1-141">
          <mxGeometry y="482" width="710" height="26" as="geometry" />
        </mxCell>
        <mxCell id="JahsXHwQ70RZX7UrnIK1-160" value="- isShuttingDown: boolean" style="text;strokeColor=none;fillColor=none;align=left;verticalAlign=top;spacingLeft=4;spacingRight=4;overflow=hidden;rotatable=0;points=[[0,0.5],[1,0.5]];portConstraint=eastwest;whiteSpace=wrap;html=1;" vertex="1" parent="JahsXHwQ70RZX7UrnIK1-141">
          <mxGeometry y="508" width="710" height="26" as="geometry" />
        </mxCell>
        <mxCell id="JahsXHwQ70RZX7UrnIK1-161" value="- stackedDrawCards: int" style="text;strokeColor=none;fillColor=none;align=left;verticalAlign=top;spacingLeft=4;spacingRight=4;overflow=hidden;rotatable=0;points=[[0,0.5],[1,0.5]];portConstraint=eastwest;whiteSpace=wrap;html=1;" vertex="1" parent="JahsXHwQ70RZX7UrnIK1-141">
          <mxGeometry y="534" width="710" height="26" as="geometry" />
        </mxCell>
        <mxCell id="JahsXHwQ70RZX7UrnIK1-162" value="- isComputerTurnActive: boolean" style="text;strokeColor=none;fillColor=none;align=left;verticalAlign=top;spacingLeft=4;spacingRight=4;overflow=hidden;rotatable=0;points=[[0,0.5],[1,0.5]];portConstraint=eastwest;whiteSpace=wrap;html=1;" vertex="1" parent="JahsXHwQ70RZX7UrnIK1-141">
          <mxGeometry y="560" width="710" height="26" as="geometry" />
        </mxCell>
        <mxCell id="JahsXHwQ70RZX7UrnIK1-163" value="- lastAIAction: ComputerActionResult" style="text;strokeColor=none;fillColor=none;align=left;verticalAlign=top;spacingLeft=4;spacingRight=4;overflow=hidden;rotatable=0;points=[[0,0.5],[1,0.5]];portConstraint=eastwest;whiteSpace=wrap;html=1;" vertex="1" parent="JahsXHwQ70RZX7UrnIK1-141">
          <mxGeometry y="586" width="710" height="26" as="geometry" />
        </mxCell>
        <mxCell id="JahsXHwQ70RZX7UrnIK1-164" value="- lastPlayedCard: AbstractCard" style="text;strokeColor=none;fillColor=none;align=left;verticalAlign=top;spacingLeft=4;spacingRight=4;overflow=hidden;rotatable=0;points=[[0,0.5],[1,0.5]];portConstraint=eastwest;whiteSpace=wrap;html=1;" vertex="1" parent="JahsXHwQ70RZX7UrnIK1-141">
          <mxGeometry y="612" width="710" height="26" as="geometry" />
        </mxCell>
        <mxCell id="JahsXHwQ70RZX7UrnIK1-165" value="" style="line;strokeWidth=1;fillColor=none;align=left;verticalAlign=middle;spacingTop=-1;spacingLeft=3;spacingRight=3;rotatable=0;labelPosition=right;points=[];portConstraint=eastwest;strokeColor=inherit;" vertex="1" parent="JahsXHwQ70RZX7UrnIK1-141">
          <mxGeometry y="638" width="710" height="8" as="geometry" />
        </mxCell>
        <mxCell id="JahsXHwQ70RZX7UrnIK1-166" value="+ initialize(location: URL, resources: ResourceBundle): void" style="text;strokeColor=none;fillColor=none;align=left;verticalAlign=top;spacingLeft=4;spacingRight=4;overflow=hidden;rotatable=0;points=[[0,0.5],[1,0.5]];portConstraint=eastwest;whiteSpace=wrap;html=1;" vertex="1" parent="JahsXHwQ70RZX7UrnIK1-141">
          <mxGeometry y="646" width="710" height="26" as="geometry" />
        </mxCell>
        <mxCell id="JahsXHwQ70RZX7UrnIK1-167" value="+ startGame(numPlayers: int, playerNames: List&amp;lt;String&amp;gt;): void" style="text;strokeColor=none;fillColor=none;align=left;verticalAlign=top;spacingLeft=4;spacingRight=4;overflow=hidden;rotatable=0;points=[[0,0.5],[1,0.5]];portConstraint=eastwest;whiteSpace=wrap;html=1;" vertex="1" parent="JahsXHwQ70RZX7UrnIK1-141">
          <mxGeometry y="672" width="710" height="26" as="geometry" />
        </mxCell>
        <mxCell id="JahsXHwQ70RZX7UrnIK1-168" value="+ updateUI(): void" style="text;strokeColor=none;fillColor=none;align=left;verticalAlign=top;spacingLeft=4;spacingRight=4;overflow=hidden;rotatable=0;points=[[0,0.5],[1,0.5]];portConstraint=eastwest;whiteSpace=wrap;html=1;" vertex="1" parent="JahsXHwQ70RZX7UrnIK1-141">
          <mxGeometry y="698" width="710" height="26" as="geometry" />
        </mxCell>
        <mxCell id="JahsXHwQ70RZX7UrnIK1-169" value="+ updatePlayerHandCount(player: AbstractPlayer): void" style="text;strokeColor=none;fillColor=none;align=left;verticalAlign=top;spacingLeft=4;spacingRight=4;overflow=hidden;rotatable=0;points=[[0,0.5],[1,0.5]];portConstraint=eastwest;whiteSpace=wrap;html=1;" vertex="1" parent="JahsXHwQ70RZX7UrnIK1-141">
          <mxGeometry y="724" width="710" height="26" as="geometry" />
        </mxCell>
        <mxCell id="JahsXHwQ70RZX7UrnIK1-170" value="+ renderPlayerHand(player: AbstractPlayer): void" style="text;strokeColor=none;fillColor=none;align=left;verticalAlign=top;spacingLeft=4;spacingRight=4;overflow=hidden;rotatable=0;points=[[0,0.5],[1,0.5]];portConstraint=eastwest;whiteSpace=wrap;html=1;" vertex="1" parent="JahsXHwQ70RZX7UrnIK1-141">
          <mxGeometry y="750" width="710" height="26" as="geometry" />
        </mxCell>
        <mxCell id="JahsXHwQ70RZX7UrnIK1-171" value="+ createCardNode(card: AbstractCard, cardIndex: int): Node" style="text;strokeColor=none;fillColor=none;align=left;verticalAlign=top;spacingLeft=4;spacingRight=4;overflow=hidden;rotatable=0;points=[[0,0.5],[1,0.5]];portConstraint=eastwest;whiteSpace=wrap;html=1;" vertex="1" parent="JahsXHwQ70RZX7UrnIK1-141">
          <mxGeometry y="776" width="710" height="26" as="geometry" />
        </mxCell>
        <mxCell id="JahsXHwQ70RZX7UrnIK1-172" value="+ loadCardBackImage(): Image" style="text;strokeColor=none;fillColor=none;align=left;verticalAlign=top;spacingLeft=4;spacingRight=4;overflow=hidden;rotatable=0;points=[[0,0.5],[1,0.5]];portConstraint=eastwest;whiteSpace=wrap;html=1;" vertex="1" parent="JahsXHwQ70RZX7UrnIK1-141">
          <mxGeometry y="802" width="710" height="26" as="geometry" />
        </mxCell>
        <mxCell id="JahsXHwQ70RZX7UrnIK1-173" value="+ updateOpponentHands(cardBack: Image): void" style="text;strokeColor=none;fillColor=none;align=left;verticalAlign=top;spacingLeft=4;spacingRight=4;overflow=hidden;rotatable=0;points=[[0,0.5],[1,0.5]];portConstraint=eastwest;whiteSpace=wrap;html=1;" vertex="1" parent="JahsXHwQ70RZX7UrnIK1-141">
          <mxGeometry y="828" width="710" height="26" as="geometry" />
        </mxCell>
        <mxCell id="JahsXHwQ70RZX7UrnIK1-174" value="+ updateDiscardAndDrawPiles(): void" style="text;strokeColor=none;fillColor=none;align=left;verticalAlign=top;spacingLeft=4;spacingRight=4;overflow=hidden;rotatable=0;points=[[0,0.5],[1,0.5]];portConstraint=eastwest;whiteSpace=wrap;html=1;" vertex="1" parent="JahsXHwQ70RZX7UrnIK1-141">
          <mxGeometry y="854" width="710" height="26" as="geometry" />
        </mxCell>
        <mxCell id="JahsXHwQ70RZX7UrnIK1-175" value="+ clearOpponentHands(): void" style="text;strokeColor=none;fillColor=none;align=left;verticalAlign=top;spacingLeft=4;spacingRight=4;overflow=hidden;rotatable=0;points=[[0,0.5],[1,0.5]];portConstraint=eastwest;whiteSpace=wrap;html=1;" vertex="1" parent="JahsXHwQ70RZX7UrnIK1-141">
          <mxGeometry y="880" width="710" height="26" as="geometry" />
        </mxCell>
        <UserObject label="+ clearOpponentHandUI(nameLabel: Label, handBox: javafx.scene.layout.Pane, handCountLabel: Label): void" link="+ clearOpponentHandUI(nameLabel: Label, handBox: javafx.scene.layout.Pane, handCountLabel: Label): void" id="JahsXHwQ70RZX7UrnIK1-176">
          <mxCell style="text;strokeColor=none;fillColor=none;align=left;verticalAlign=top;spacingLeft=4;spacingRight=4;overflow=hidden;rotatable=0;points=[[0,0.5],[1,0.5]];portConstraint=eastwest;whiteSpace=wrap;html=1;" vertex="1" parent="JahsXHwQ70RZX7UrnIK1-141">
            <mxGeometry y="906" width="710" height="26" as="geometry" />
          </mxCell>
        </UserObject>
        <mxCell id="JahsXHwQ70RZX7UrnIK1-177" value="+ setOpponentHandHBox(index: int, nameLabel: Label, handBox: HBox, handCountLabel: Label, cardBack: Image): void" style="text;strokeColor=none;fillColor=none;align=left;verticalAlign=top;spacingLeft=4;spacingRight=4;overflow=hidden;rotatable=0;points=[[0,0.5],[1,0.5]];portConstraint=eastwest;whiteSpace=wrap;html=1;" vertex="1" parent="JahsXHwQ70RZX7UrnIK1-141">
          <mxGeometry y="932" width="710" height="26" as="geometry" />
        </mxCell>
        <mxCell id="JahsXHwQ70RZX7UrnIK1-178" value="+ setPlayerLabelStyle(index: int, nameLabel: Label, isCurrentTurn: boolean): void" style="text;strokeColor=none;fillColor=none;align=left;verticalAlign=top;spacingLeft=4;spacingRight=4;overflow=hidden;rotatable=0;points=[[0,0.5],[1,0.5]];portConstraint=eastwest;whiteSpace=wrap;html=1;" vertex="1" parent="JahsXHwQ70RZX7UrnIK1-141">
          <mxGeometry y="958" width="710" height="26" as="geometry" />
        </mxCell>
        <mxCell id="JahsXHwQ70RZX7UrnIK1-179" value="+ setOpponentHandVBox(index: int, nameLabel: Label, handBox: VBox, handCountLabel: Label, cardBack: Image): void" style="text;strokeColor=none;fillColor=none;align=left;verticalAlign=top;spacingLeft=4;spacingRight=4;overflow=hidden;rotatable=0;points=[[0,0.5],[1,0.5]];portConstraint=eastwest;whiteSpace=wrap;html=1;" vertex="1" parent="JahsXHwQ70RZX7UrnIK1-141">
          <mxGeometry y="984" width="710" height="26" as="geometry" />
        </mxCell>
        <mxCell id="JahsXHwQ70RZX7UrnIK1-180" value="+ updateWildCardColor(): void" style="text;strokeColor=none;fillColor=none;align=left;verticalAlign=top;spacingLeft=4;spacingRight=4;overflow=hidden;rotatable=0;points=[[0,0.5],[1,0.5]];portConstraint=eastwest;whiteSpace=wrap;html=1;" vertex="1" parent="JahsXHwQ70RZX7UrnIK1-141">
          <mxGeometry y="1010" width="710" height="26" as="geometry" />
        </mxCell>
        <mxCell id="JahsXHwQ70RZX7UrnIK1-181" value="+ handleGameRulesAfterTurn(): void" style="text;strokeColor=none;fillColor=none;align=left;verticalAlign=top;spacingLeft=4;spacingRight=4;overflow=hidden;rotatable=0;points=[[0,0.5],[1,0.5]];portConstraint=eastwest;whiteSpace=wrap;html=1;" vertex="1" parent="JahsXHwQ70RZX7UrnIK1-141">
          <mxGeometry y="1036" width="710" height="26" as="geometry" />
        </mxCell>
        <mxCell id="JahsXHwQ70RZX7UrnIK1-182" value="+ handleCardClick(cardIndex: int): void" style="text;strokeColor=none;fillColor=none;align=left;verticalAlign=top;spacingLeft=4;spacingRight=4;overflow=hidden;rotatable=0;points=[[0,0.5],[1,0.5]];portConstraint=eastwest;whiteSpace=wrap;html=1;" vertex="1" parent="JahsXHwQ70RZX7UrnIK1-141">
          <mxGeometry y="1062" width="710" height="26" as="geometry" />
        </mxCell>
        <mxCell id="JahsXHwQ70RZX7UrnIK1-183" value="+ updateLastAction(player: AbstractPlayer, card: AbstractCard): void" style="text;strokeColor=none;fillColor=none;align=left;verticalAlign=top;spacingLeft=4;spacingRight=4;overflow=hidden;rotatable=0;points=[[0,0.5],[1,0.5]];portConstraint=eastwest;whiteSpace=wrap;html=1;" vertex="1" parent="JahsXHwQ70RZX7UrnIK1-141">
          <mxGeometry y="1088" width="710" height="26" as="geometry" />
        </mxCell>
        <mxCell id="JahsXHwQ70RZX7UrnIK1-184" value="+ showNotification(message: String, color: Color): void" style="text;strokeColor=none;fillColor=none;align=left;verticalAlign=top;spacingLeft=4;spacingRight=4;overflow=hidden;rotatable=0;points=[[0,0.5],[1,0.5]];portConstraint=eastwest;whiteSpace=wrap;html=1;" vertex="1" parent="JahsXHwQ70RZX7UrnIK1-141">
          <mxGeometry y="1114" width="710" height="26" as="geometry" />
        </mxCell>
        <mxCell id="JahsXHwQ70RZX7UrnIK1-185" value="+ updateGameDirectionLabel(): void" style="text;strokeColor=none;fillColor=none;align=left;verticalAlign=top;spacingLeft=4;spacingRight=4;overflow=hidden;rotatable=0;points=[[0,0.5],[1,0.5]];portConstraint=eastwest;whiteSpace=wrap;html=1;" vertex="1" parent="JahsXHwQ70RZX7UrnIK1-141">
          <mxGeometry y="1140" width="710" height="26" as="geometry" />
        </mxCell>
        <mxCell id="JahsXHwQ70RZX7UrnIK1-186" value="+ showColorSelectionDialog(): Colors" style="text;strokeColor=none;fillColor=none;align=left;verticalAlign=top;spacingLeft=4;spacingRight=4;overflow=hidden;rotatable=0;points=[[0,0.5],[1,0.5]];portConstraint=eastwest;whiteSpace=wrap;html=1;" vertex="1" parent="JahsXHwQ70RZX7UrnIK1-141">
          <mxGeometry y="1166" width="710" height="26" as="geometry" />
        </mxCell>
        <mxCell id="JahsXHwQ70RZX7UrnIK1-187" value="+ handleDrawCard(): void" style="text;strokeColor=none;fillColor=none;align=left;verticalAlign=top;spacingLeft=4;spacingRight=4;overflow=hidden;rotatable=0;points=[[0,0.5],[1,0.5]];portConstraint=eastwest;whiteSpace=wrap;html=1;" vertex="1" parent="JahsXHwQ70RZX7UrnIK1-141">
          <mxGeometry y="1192" width="710" height="26" as="geometry" />
        </mxCell>
        <mxCell id="JahsXHwQ70RZX7UrnIK1-188" value="+ checkGameStatus(): void" style="text;strokeColor=none;fillColor=none;align=left;verticalAlign=top;spacingLeft=4;spacingRight=4;overflow=hidden;rotatable=0;points=[[0,0.5],[1,0.5]];portConstraint=eastwest;whiteSpace=wrap;html=1;" vertex="1" parent="JahsXHwQ70RZX7UrnIK1-141">
          <mxGeometry y="1218" width="710" height="26" as="geometry" />
        </mxCell>
        <mxCell id="JahsXHwQ70RZX7UrnIK1-189" value="+ showSingleplayerWinDialog(winnerName: String): void" style="text;strokeColor=none;fillColor=none;align=left;verticalAlign=top;spacingLeft=4;spacingRight=4;overflow=hidden;rotatable=0;points=[[0,0.5],[1,0.5]];portConstraint=eastwest;whiteSpace=wrap;html=1;" vertex="1" parent="JahsXHwQ70RZX7UrnIK1-141">
          <mxGeometry y="1244" width="710" height="26" as="geometry" />
        </mxCell>
        <mxCell id="JahsXHwQ70RZX7UrnIK1-190" value="+ goToMainMenu(): void" style="text;strokeColor=none;fillColor=none;align=left;verticalAlign=top;spacingLeft=4;spacingRight=4;overflow=hidden;rotatable=0;points=[[0,0.5],[1,0.5]];portConstraint=eastwest;whiteSpace=wrap;html=1;" vertex="1" parent="JahsXHwQ70RZX7UrnIK1-141">
          <mxGeometry y="1270" width="710" height="26" as="geometry" />
        </mxCell>
        <mxCell id="JahsXHwQ70RZX7UrnIK1-191" value="+ shutdown(): void" style="text;strokeColor=none;fillColor=none;align=left;verticalAlign=top;spacingLeft=4;spacingRight=4;overflow=hidden;rotatable=0;points=[[0,0.5],[1,0.5]];portConstraint=eastwest;whiteSpace=wrap;html=1;" vertex="1" parent="JahsXHwQ70RZX7UrnIK1-141">
          <mxGeometry y="1296" width="710" height="26" as="geometry" />
        </mxCell>
        <mxCell id="JahsXHwQ70RZX7UrnIK1-192" value="+ checkAndStartComputerTurn(): void" style="text;strokeColor=none;fillColor=none;align=left;verticalAlign=top;spacingLeft=4;spacingRight=4;overflow=hidden;rotatable=0;points=[[0,0.5],[1,0.5]];portConstraint=eastwest;whiteSpace=wrap;html=1;" vertex="1" parent="JahsXHwQ70RZX7UrnIK1-141">
          <mxGeometry y="1322" width="710" height="26" as="geometry" />
        </mxCell>
        <mxCell id="JahsXHwQ70RZX7UrnIK1-193" value="+ scheduleNextAIStep(): void" style="text;strokeColor=none;fillColor=none;align=left;verticalAlign=top;spacingLeft=4;spacingRight=4;overflow=hidden;rotatable=0;points=[[0,0.5],[1,0.5]];portConstraint=eastwest;whiteSpace=wrap;html=1;" vertex="1" parent="JahsXHwQ70RZX7UrnIK1-141">
          <mxGeometry y="1348" width="710" height="26" as="geometry" />
        </mxCell>
        <mxCell id="JahsXHwQ70RZX7UrnIK1-194" value="+ stepComputerTurn(): void" style="text;strokeColor=none;fillColor=none;align=left;verticalAlign=top;spacingLeft=4;spacingRight=4;overflow=hidden;rotatable=0;points=[[0,0.5],[1,0.5]];portConstraint=eastwest;whiteSpace=wrap;html=1;" vertex="1" parent="JahsXHwQ70RZX7UrnIK1-141">
          <mxGeometry y="1374" width="710" height="26" as="geometry" />
        </mxCell>
        <mxCell id="JahsXHwQ70RZX7UrnIK1-195" style="edgeStyle=orthogonalEdgeStyle;rounded=0;orthogonalLoop=1;jettySize=auto;html=1;entryX=0.75;entryY=0;entryDx=0;entryDy=0;" edge="1" parent="1" source="JahsXHwQ70RZX7UrnIK1-102" target="JahsXHwQ70RZX7UrnIK1-141">
          <mxGeometry relative="1" as="geometry" />
        </mxCell>
        <mxCell id="JahsXHwQ70RZX7UrnIK1-196" value="&lt;font style=&quot;font-size: 16px;&quot;&gt;GameSetupController&lt;/font&gt;" style="swimlane;fontStyle=1;align=center;verticalAlign=top;childLayout=stackLayout;horizontal=1;startSize=40;horizontalStack=0;resizeParent=1;resizeParentMax=0;resizeLast=0;collapsible=1;marginBottom=0;whiteSpace=wrap;html=1;" vertex="1" parent="1">
          <mxGeometry x="2005" y="-1468" width="340" height="620" as="geometry" />
        </mxCell>
        <mxCell id="JahsXHwQ70RZX7UrnIK1-197" value="- startGameButton: Button" style="text;strokeColor=none;fillColor=none;align=left;verticalAlign=top;spacingLeft=4;spacingRight=4;overflow=hidden;rotatable=0;points=[[0,0.5],[1,0.5]];portConstraint=eastwest;whiteSpace=wrap;html=1;" vertex="1" parent="JahsXHwQ70RZX7UrnIK1-196">
          <mxGeometry y="40" width="340" height="26" as="geometry" />
        </mxCell>
        <mxCell id="JahsXHwQ70RZX7UrnIK1-198" value="- cancelButton: Button" style="text;strokeColor=none;fillColor=none;align=left;verticalAlign=top;spacingLeft=4;spacingRight=4;overflow=hidden;rotatable=0;points=[[0,0.5],[1,0.5]];portConstraint=eastwest;whiteSpace=wrap;html=1;" vertex="1" parent="JahsXHwQ70RZX7UrnIK1-196">
          <mxGeometry y="66" width="340" height="26" as="geometry" />
        </mxCell>
        <mxCell id="JahsXHwQ70RZX7UrnIK1-199" value="- playersContainer: HBox" style="text;strokeColor=none;fillColor=none;align=left;verticalAlign=top;spacingLeft=4;spacingRight=4;overflow=hidden;rotatable=0;points=[[0,0.5],[1,0.5]];portConstraint=eastwest;whiteSpace=wrap;html=1;" vertex="1" parent="JahsXHwQ70RZX7UrnIK1-196">
          <mxGeometry y="92" width="340" height="26" as="geometry" />
        </mxCell>
        <mxCell id="JahsXHwQ70RZX7UrnIK1-200" value="- dateTimeLabel: Label" style="text;strokeColor=none;fillColor=none;align=left;verticalAlign=top;spacingLeft=4;spacingRight=4;overflow=hidden;rotatable=0;points=[[0,0.5],[1,0.5]];portConstraint=eastwest;whiteSpace=wrap;html=1;" vertex="1" parent="JahsXHwQ70RZX7UrnIK1-196">
          <mxGeometry y="118" width="340" height="26" as="geometry" />
        </mxCell>
        <mxCell id="JahsXHwQ70RZX7UrnIK1-201" value="- lobbyCodeField: TextField" style="text;strokeColor=none;fillColor=none;align=left;verticalAlign=top;spacingLeft=4;spacingRight=4;overflow=hidden;rotatable=0;points=[[0,0.5],[1,0.5]];portConstraint=eastwest;whiteSpace=wrap;html=1;" vertex="1" parent="JahsXHwQ70RZX7UrnIK1-196">
          <mxGeometry y="144" width="340" height="26" as="geometry" />
        </mxCell>
        <mxCell id="JahsXHwQ70RZX7UrnIK1-202" value="- currentUser: String" style="text;strokeColor=none;fillColor=none;align=left;verticalAlign=top;spacingLeft=4;spacingRight=4;overflow=hidden;rotatable=0;points=[[0,0.5],[1,0.5]];portConstraint=eastwest;whiteSpace=wrap;html=1;" vertex="1" parent="JahsXHwQ70RZX7UrnIK1-196">
          <mxGeometry y="170" width="340" height="26" as="geometry" />
        </mxCell>
        <mxCell id="JahsXHwQ70RZX7UrnIK1-203" value="- lobbyCode: String" style="text;strokeColor=none;fillColor=none;align=left;verticalAlign=top;spacingLeft=4;spacingRight=4;overflow=hidden;rotatable=0;points=[[0,0.5],[1,0.5]];portConstraint=eastwest;whiteSpace=wrap;html=1;" vertex="1" parent="JahsXHwQ70RZX7UrnIK1-196">
          <mxGeometry y="196" width="340" height="26" as="geometry" />
        </mxCell>
        <mxCell id="JahsXHwQ70RZX7UrnIK1-204" value="- isHost: boolean" style="text;strokeColor=none;fillColor=none;align=left;verticalAlign=top;spacingLeft=4;spacingRight=4;overflow=hidden;rotatable=0;points=[[0,0.5],[1,0.5]];portConstraint=eastwest;whiteSpace=wrap;html=1;" vertex="1" parent="JahsXHwQ70RZX7UrnIK1-196">
          <mxGeometry y="222" width="340" height="26" as="geometry" />
        </mxCell>
        <mxCell id="JahsXHwQ70RZX7UrnIK1-205" value="- isJoin: boolean" style="text;strokeColor=none;fillColor=none;align=left;verticalAlign=top;spacingLeft=4;spacingRight=4;overflow=hidden;rotatable=0;points=[[0,0.5],[1,0.5]];portConstraint=eastwest;whiteSpace=wrap;html=1;" vertex="1" parent="JahsXHwQ70RZX7UrnIK1-196">
          <mxGeometry y="248" width="340" height="26" as="geometry" />
        </mxCell>
        <mxCell id="JahsXHwQ70RZX7UrnIK1-206" value="" style="line;strokeWidth=1;fillColor=none;align=left;verticalAlign=middle;spacingTop=-1;spacingLeft=3;spacingRight=3;rotatable=0;labelPosition=right;points=[];portConstraint=eastwest;strokeColor=inherit;" vertex="1" parent="JahsXHwQ70RZX7UrnIK1-196">
          <mxGeometry y="274" width="340" height="8" as="geometry" />
        </mxCell>
        <mxCell id="JahsXHwQ70RZX7UrnIK1-207" value="+ setupHost(username: String): void" style="text;strokeColor=none;fillColor=none;align=left;verticalAlign=top;spacingLeft=4;spacingRight=4;overflow=hidden;rotatable=0;points=[[0,0.5],[1,0.5]];portConstraint=eastwest;whiteSpace=wrap;html=1;" vertex="1" parent="JahsXHwQ70RZX7UrnIK1-196">
          <mxGeometry y="282" width="340" height="26" as="geometry" />
        </mxCell>
        <mxCell id="JahsXHwQ70RZX7UrnIK1-208" value="+ setupJoin(username: String, code: String): void" style="text;strokeColor=none;fillColor=none;align=left;verticalAlign=top;spacingLeft=4;spacingRight=4;overflow=hidden;rotatable=0;points=[[0,0.5],[1,0.5]];portConstraint=eastwest;whiteSpace=wrap;html=1;" vertex="1" parent="JahsXHwQ70RZX7UrnIK1-196">
          <mxGeometry y="308" width="340" height="26" as="geometry" />
        </mxCell>
        <mxCell id="JahsXHwQ70RZX7UrnIK1-209" value="+ initialize(): void" style="text;strokeColor=none;fillColor=none;align=left;verticalAlign=top;spacingLeft=4;spacingRight=4;overflow=hidden;rotatable=0;points=[[0,0.5],[1,0.5]];portConstraint=eastwest;whiteSpace=wrap;html=1;" vertex="1" parent="JahsXHwQ70RZX7UrnIK1-196">
          <mxGeometry y="334" width="340" height="26" as="geometry" />
        </mxCell>
        <mxCell id="JahsXHwQ70RZX7UrnIK1-210" value="+ updateLobbyCodeLabel(code: String): void" style="text;strokeColor=none;fillColor=none;align=left;verticalAlign=top;spacingLeft=4;spacingRight=4;overflow=hidden;rotatable=0;points=[[0,0.5],[1,0.5]];portConstraint=eastwest;whiteSpace=wrap;html=1;" vertex="1" parent="JahsXHwQ70RZX7UrnIK1-196">
          <mxGeometry y="360" width="340" height="26" as="geometry" />
        </mxCell>
        <mxCell id="JahsXHwQ70RZX7UrnIK1-211" value="+ updateDateTimeLabel(): void" style="text;strokeColor=none;fillColor=none;align=left;verticalAlign=top;spacingLeft=4;spacingRight=4;overflow=hidden;rotatable=0;points=[[0,0.5],[1,0.5]];portConstraint=eastwest;whiteSpace=wrap;html=1;" vertex="1" parent="JahsXHwQ70RZX7UrnIK1-196">
          <mxGeometry y="386" width="340" height="26" as="geometry" />
        </mxCell>
        <mxCell id="JahsXHwQ70RZX7UrnIK1-212" value="+ initializePlayersContainer(): void" style="text;strokeColor=none;fillColor=none;align=left;verticalAlign=top;spacingLeft=4;spacingRight=4;overflow=hidden;rotatable=0;points=[[0,0.5],[1,0.5]];portConstraint=eastwest;whiteSpace=wrap;html=1;" vertex="1" parent="JahsXHwQ70RZX7UrnIK1-196">
          <mxGeometry y="412" width="340" height="26" as="geometry" />
        </mxCell>
        <mxCell id="JahsXHwQ70RZX7UrnIK1-213" value="+ removeLastPlayer(): void" style="text;strokeColor=none;fillColor=none;align=left;verticalAlign=top;spacingLeft=4;spacingRight=4;overflow=hidden;rotatable=0;points=[[0,0.5],[1,0.5]];portConstraint=eastwest;whiteSpace=wrap;html=1;" vertex="1" parent="JahsXHwQ70RZX7UrnIK1-196">
          <mxGeometry y="438" width="340" height="26" as="geometry" />
        </mxCell>
        <mxCell id="JahsXHwQ70RZX7UrnIK1-214" value="+ addPlayerEntry(name: String, isHostEntry: boolean): void" style="text;strokeColor=none;fillColor=none;align=left;verticalAlign=top;spacingLeft=4;spacingRight=4;overflow=hidden;rotatable=0;points=[[0,0.5],[1,0.5]];portConstraint=eastwest;whiteSpace=wrap;html=1;" vertex="1" parent="JahsXHwQ70RZX7UrnIK1-196">
          <mxGeometry y="464" width="340" height="26" as="geometry" />
        </mxCell>
        <mxCell id="JahsXHwQ70RZX7UrnIK1-215" value="+ updateBottomButtons(): void" style="text;strokeColor=none;fillColor=none;align=left;verticalAlign=top;spacingLeft=4;spacingRight=4;overflow=hidden;rotatable=0;points=[[0,0.5],[1,0.5]];portConstraint=eastwest;whiteSpace=wrap;html=1;" vertex="1" parent="JahsXHwQ70RZX7UrnIK1-196">
          <mxGeometry y="490" width="340" height="26" as="geometry" />
        </mxCell>
        <mxCell id="JahsXHwQ70RZX7UrnIK1-216" value="+ handleStartGame(): void" style="text;strokeColor=none;fillColor=none;align=left;verticalAlign=top;spacingLeft=4;spacingRight=4;overflow=hidden;rotatable=0;points=[[0,0.5],[1,0.5]];portConstraint=eastwest;whiteSpace=wrap;html=1;" vertex="1" parent="JahsXHwQ70RZX7UrnIK1-196">
          <mxGeometry y="516" width="340" height="26" as="geometry" />
        </mxCell>
        <mxCell id="JahsXHwQ70RZX7UrnIK1-217" value="+ handleReady(): void" style="text;strokeColor=none;fillColor=none;align=left;verticalAlign=top;spacingLeft=4;spacingRight=4;overflow=hidden;rotatable=0;points=[[0,0.5],[1,0.5]];portConstraint=eastwest;whiteSpace=wrap;html=1;" vertex="1" parent="JahsXHwQ70RZX7UrnIK1-196">
          <mxGeometry y="542" width="340" height="26" as="geometry" />
        </mxCell>
        <mxCell id="JahsXHwQ70RZX7UrnIK1-218" value="+ handleLeaveLobby(): void" style="text;strokeColor=none;fillColor=none;align=left;verticalAlign=top;spacingLeft=4;spacingRight=4;overflow=hidden;rotatable=0;points=[[0,0.5],[1,0.5]];portConstraint=eastwest;whiteSpace=wrap;html=1;" vertex="1" parent="JahsXHwQ70RZX7UrnIK1-196">
          <mxGeometry y="568" width="340" height="26" as="geometry" />
        </mxCell>
        <mxCell id="JahsXHwQ70RZX7UrnIK1-219" value="+ generateLobbyCode(): String" style="text;strokeColor=none;fillColor=none;align=left;verticalAlign=top;spacingLeft=4;spacingRight=4;overflow=hidden;rotatable=0;points=[[0,0.5],[1,0.5]];portConstraint=eastwest;whiteSpace=wrap;html=1;" vertex="1" parent="JahsXHwQ70RZX7UrnIK1-196">
          <mxGeometry y="594" width="340" height="26" as="geometry" />
        </mxCell>
        <mxCell id="JahsXHwQ70RZX7UrnIK1-220" value="&lt;font style=&quot;font-size: 16px;&quot;&gt;MenuController&lt;/font&gt;" style="swimlane;fontStyle=1;align=center;verticalAlign=top;childLayout=stackLayout;horizontal=1;startSize=40;horizontalStack=0;resizeParent=1;resizeParentMax=0;resizeLast=0;collapsible=1;marginBottom=0;whiteSpace=wrap;html=1;" vertex="1" parent="1">
          <mxGeometry x="1585" y="-1468" width="340" height="570" as="geometry" />
        </mxCell>
        <mxCell id="JahsXHwQ70RZX7UrnIK1-221" value="- singleplayerCard: VBox" style="text;strokeColor=none;fillColor=none;align=left;verticalAlign=top;spacingLeft=4;spacingRight=4;overflow=hidden;rotatable=0;points=[[0,0.5],[1,0.5]];portConstraint=eastwest;whiteSpace=wrap;html=1;" vertex="1" parent="JahsXHwQ70RZX7UrnIK1-220">
          <mxGeometry y="40" width="340" height="26" as="geometry" />
        </mxCell>
        <mxCell id="JahsXHwQ70RZX7UrnIK1-222" value="- hostGameCard: VBox" style="text;strokeColor=none;fillColor=none;align=left;verticalAlign=top;spacingLeft=4;spacingRight=4;overflow=hidden;rotatable=0;points=[[0,0.5],[1,0.5]];portConstraint=eastwest;whiteSpace=wrap;html=1;" vertex="1" parent="JahsXHwQ70RZX7UrnIK1-220">
          <mxGeometry y="66" width="340" height="26" as="geometry" />
        </mxCell>
        <mxCell id="JahsXHwQ70RZX7UrnIK1-223" value="- joinGameCard: VBox" style="text;strokeColor=none;fillColor=none;align=left;verticalAlign=top;spacingLeft=4;spacingRight=4;overflow=hidden;rotatable=0;points=[[0,0.5],[1,0.5]];portConstraint=eastwest;whiteSpace=wrap;html=1;" vertex="1" parent="JahsXHwQ70RZX7UrnIK1-220">
          <mxGeometry y="92" width="340" height="26" as="geometry" />
        </mxCell>
        <mxCell id="JahsXHwQ70RZX7UrnIK1-224" value="- exitCard: VBox" style="text;strokeColor=none;fillColor=none;align=left;verticalAlign=top;spacingLeft=4;spacingRight=4;overflow=hidden;rotatable=0;points=[[0,0.5],[1,0.5]];portConstraint=eastwest;whiteSpace=wrap;html=1;" vertex="1" parent="JahsXHwQ70RZX7UrnIK1-220">
          <mxGeometry y="118" width="340" height="26" as="geometry" />
        </mxCell>
        <mxCell id="JahsXHwQ70RZX7UrnIK1-225" value="- singleplayerImageView: ImageView" style="text;strokeColor=none;fillColor=none;align=left;verticalAlign=top;spacingLeft=4;spacingRight=4;overflow=hidden;rotatable=0;points=[[0,0.5],[1,0.5]];portConstraint=eastwest;whiteSpace=wrap;html=1;" vertex="1" parent="JahsXHwQ70RZX7UrnIK1-220">
          <mxGeometry y="144" width="340" height="26" as="geometry" />
        </mxCell>
        <mxCell id="JahsXHwQ70RZX7UrnIK1-226" value="- hostgameImageView: ImageView" style="text;strokeColor=none;fillColor=none;align=left;verticalAlign=top;spacingLeft=4;spacingRight=4;overflow=hidden;rotatable=0;points=[[0,0.5],[1,0.5]];portConstraint=eastwest;whiteSpace=wrap;html=1;" vertex="1" parent="JahsXHwQ70RZX7UrnIK1-220">
          <mxGeometry y="170" width="340" height="26" as="geometry" />
        </mxCell>
        <mxCell id="JahsXHwQ70RZX7UrnIK1-227" value="- joingameImageView: ImageView" style="text;strokeColor=none;fillColor=none;align=left;verticalAlign=top;spacingLeft=4;spacingRight=4;overflow=hidden;rotatable=0;points=[[0,0.5],[1,0.5]];portConstraint=eastwest;whiteSpace=wrap;html=1;" vertex="1" parent="JahsXHwQ70RZX7UrnIK1-220">
          <mxGeometry y="196" width="340" height="26" as="geometry" />
        </mxCell>
        <mxCell id="JahsXHwQ70RZX7UrnIK1-228" value="- exitImageView: ImageView" style="text;strokeColor=none;fillColor=none;align=left;verticalAlign=top;spacingLeft=4;spacingRight=4;overflow=hidden;rotatable=0;points=[[0,0.5],[1,0.5]];portConstraint=eastwest;whiteSpace=wrap;html=1;" vertex="1" parent="JahsXHwQ70RZX7UrnIK1-220">
          <mxGeometry y="222" width="340" height="26" as="geometry" />
        </mxCell>
        <mxCell id="JahsXHwQ70RZX7UrnIK1-229" value="- aiNamePool: List&amp;lt;String&amp;gt;" style="text;strokeColor=none;fillColor=none;align=left;verticalAlign=top;spacingLeft=4;spacingRight=4;overflow=hidden;rotatable=0;points=[[0,0.5],[1,0.5]];portConstraint=eastwest;whiteSpace=wrap;html=1;" vertex="1" parent="JahsXHwQ70RZX7UrnIK1-220">
          <mxGeometry y="248" width="340" height="26" as="geometry" />
        </mxCell>
        <mxCell id="JahsXHwQ70RZX7UrnIK1-230" value="" style="line;strokeWidth=1;fillColor=none;align=left;verticalAlign=middle;spacingTop=-1;spacingLeft=3;spacingRight=3;rotatable=0;labelPosition=right;points=[];portConstraint=eastwest;strokeColor=inherit;" vertex="1" parent="JahsXHwQ70RZX7UrnIK1-220">
          <mxGeometry y="274" width="340" height="8" as="geometry" />
        </mxCell>
        <mxCell id="JahsXHwQ70RZX7UrnIK1-231" value="+ initialize(): void" style="text;strokeColor=none;fillColor=none;align=left;verticalAlign=top;spacingLeft=4;spacingRight=4;overflow=hidden;rotatable=0;points=[[0,0.5],[1,0.5]];portConstraint=eastwest;whiteSpace=wrap;html=1;" vertex="1" parent="JahsXHwQ70RZX7UrnIK1-220">
          <mxGeometry y="282" width="340" height="26" as="geometry" />
        </mxCell>
        <mxCell id="JahsXHwQ70RZX7UrnIK1-232" value="+ handleHostGame(): void" style="text;strokeColor=none;fillColor=none;align=left;verticalAlign=top;spacingLeft=4;spacingRight=4;overflow=hidden;rotatable=0;points=[[0,0.5],[1,0.5]];portConstraint=eastwest;whiteSpace=wrap;html=1;" vertex="1" parent="JahsXHwQ70RZX7UrnIK1-220">
          <mxGeometry y="308" width="340" height="26" as="geometry" />
        </mxCell>
        <mxCell id="JahsXHwQ70RZX7UrnIK1-233" value="+ handleJoinGame(): void" style="text;strokeColor=none;fillColor=none;align=left;verticalAlign=top;spacingLeft=4;spacingRight=4;overflow=hidden;rotatable=0;points=[[0,0.5],[1,0.5]];portConstraint=eastwest;whiteSpace=wrap;html=1;" vertex="1" parent="JahsXHwQ70RZX7UrnIK1-220">
          <mxGeometry y="334" width="340" height="26" as="geometry" />
        </mxCell>
        <mxCell id="JahsXHwQ70RZX7UrnIK1-234" value="+ exitGame(): void" style="text;strokeColor=none;fillColor=none;align=left;verticalAlign=top;spacingLeft=4;spacingRight=4;overflow=hidden;rotatable=0;points=[[0,0.5],[1,0.5]];portConstraint=eastwest;whiteSpace=wrap;html=1;" vertex="1" parent="JahsXHwQ70RZX7UrnIK1-220">
          <mxGeometry y="360" width="340" height="26" as="geometry" />
        </mxCell>
        <mxCell id="JahsXHwQ70RZX7UrnIK1-235" value="+ handleSingleplayer(): void" style="text;strokeColor=none;fillColor=none;align=left;verticalAlign=top;spacingLeft=4;spacingRight=4;overflow=hidden;rotatable=0;points=[[0,0.5],[1,0.5]];portConstraint=eastwest;whiteSpace=wrap;html=1;" vertex="1" parent="JahsXHwQ70RZX7UrnIK1-220">
          <mxGeometry y="386" width="340" height="26" as="geometry" />
        </mxCell>
        <mxCell id="JahsXHwQ70RZX7UrnIK1-236" value="+ getUniqueAiNames(count: int): List&amp;lt;String&amp;gt;" style="text;strokeColor=none;fillColor=none;align=left;verticalAlign=top;spacingLeft=4;spacingRight=4;overflow=hidden;rotatable=0;points=[[0,0.5],[1,0.5]];portConstraint=eastwest;whiteSpace=wrap;html=1;" vertex="1" parent="JahsXHwQ70RZX7UrnIK1-220">
          <mxGeometry y="412" width="340" height="26" as="geometry" />
        </mxCell>
        <mxCell id="JahsXHwQ70RZX7UrnIK1-237" value="+ showError(header: String, content: String): void" style="text;strokeColor=none;fillColor=none;align=left;verticalAlign=top;spacingLeft=4;spacingRight=4;overflow=hidden;rotatable=0;points=[[0,0.5],[1,0.5]];portConstraint=eastwest;whiteSpace=wrap;html=1;" vertex="1" parent="JahsXHwQ70RZX7UrnIK1-220">
          <mxGeometry y="438" width="340" height="26" as="geometry" />
        </mxCell>
        <mxCell id="JahsXHwQ70RZX7UrnIK1-238" value="+ launchSingleplayerGame(numberOfPlayers: int, playerNames: List&amp;lt;String&amp;gt;): void" style="text;strokeColor=none;fillColor=none;align=left;verticalAlign=top;spacingLeft=4;spacingRight=4;overflow=hidden;rotatable=0;points=[[0,0.5],[1,0.5]];portConstraint=eastwest;whiteSpace=wrap;html=1;" vertex="1" parent="JahsXHwQ70RZX7UrnIK1-220">
          <mxGeometry y="464" width="340" height="46" as="geometry" />
        </mxCell>
        <mxCell id="JahsXHwQ70RZX7UrnIK1-239" value="+ launchGameSetupUI(mode: GameSetupDialogController.Mode, setupResult: GameSetupDialogController.MultiplayerSetupResult): void" style="text;strokeColor=none;fillColor=none;align=left;verticalAlign=top;spacingLeft=4;spacingRight=4;overflow=hidden;rotatable=0;points=[[0,0.5],[1,0.5]];portConstraint=eastwest;whiteSpace=wrap;html=1;" vertex="1" parent="JahsXHwQ70RZX7UrnIK1-220">
          <mxGeometry y="510" width="340" height="60" as="geometry" />
        </mxCell>
      </root>
    </mxGraphModel>
  </diagram>
  <diagram id="3QTrzeXRPjo4u4h1qSm6" name="Database">
    <mxGraphModel dx="1034" dy="603" grid="1" gridSize="10" guides="1" tooltips="1" connect="1" arrows="1" fold="1" page="1" pageScale="1" pageWidth="850" pageHeight="1100" math="0" shadow="0">
      <root>
        <mxCell id="0" />
        <mxCell id="1" parent="0" />
        <mxCell id="E574p-8nkFxnW5F4igIi-1" value="DatabaseManager&lt;div&gt;&lt;span style=&quot;font-weight: normal;&quot;&gt;&amp;lt;&amp;lt;Interface&amp;gt;&amp;gt;&lt;/span&gt;&lt;/div&gt;" style="swimlane;fontStyle=1;align=center;verticalAlign=top;childLayout=stackLayout;horizontal=1;startSize=40;horizontalStack=0;resizeParent=1;resizeParentMax=0;resizeLast=0;collapsible=1;marginBottom=0;whiteSpace=wrap;html=1;" vertex="1" parent="1">
          <mxGeometry x="400" y="30" width="570" height="256" as="geometry" />
        </mxCell>
        <mxCell id="E574p-8nkFxnW5F4igIi-2" value="+ &lt;u&gt;Transaction&amp;lt;R&amp;gt;: interface&lt;/u&gt;" style="text;strokeColor=none;fillColor=none;align=left;verticalAlign=top;spacingLeft=4;spacingRight=4;overflow=hidden;rotatable=0;points=[[0,0.5],[1,0.5]];portConstraint=eastwest;whiteSpace=wrap;html=1;fontStyle=0" vertex="1" parent="E574p-8nkFxnW5F4igIi-1">
          <mxGeometry y="40" width="570" height="26" as="geometry" />
        </mxCell>
        <mxCell id="E574p-8nkFxnW5F4igIi-3" value="+ &lt;u&gt;SerializationFailureException: Exception&lt;/u&gt;" style="text;strokeColor=none;fillColor=none;align=left;verticalAlign=top;spacingLeft=4;spacingRight=4;overflow=hidden;rotatable=0;points=[[0,0.5],[1,0.5]];portConstraint=eastwest;whiteSpace=wrap;html=1;fontStyle=0" vertex="1" parent="E574p-8nkFxnW5F4igIi-1">
          <mxGeometry y="66" width="570" height="26" as="geometry" />
        </mxCell>
        <mxCell id="E574p-8nkFxnW5F4igIi-4" value="+ &lt;u&gt;DataFetchException: Exception&lt;/u&gt;" style="text;strokeColor=none;fillColor=none;align=left;verticalAlign=top;spacingLeft=4;spacingRight=4;overflow=hidden;rotatable=0;points=[[0,0.5],[1,0.5]];portConstraint=eastwest;whiteSpace=wrap;html=1;fontStyle=0" vertex="1" parent="E574p-8nkFxnW5F4igIi-1">
          <mxGeometry y="92" width="570" height="26" as="geometry" />
        </mxCell>
        <mxCell id="E574p-8nkFxnW5F4igIi-5" value="" style="line;strokeWidth=1;fillColor=none;align=left;verticalAlign=middle;spacingTop=-1;spacingLeft=3;spacingRight=3;rotatable=0;labelPosition=right;points=[];portConstraint=eastwest;strokeColor=inherit;" vertex="1" parent="E574p-8nkFxnW5F4igIi-1">
          <mxGeometry y="118" width="570" height="8" as="geometry" />
        </mxCell>
        <mxCell id="E574p-8nkFxnW5F4igIi-6" value="# saveData(SerializableGameData): int" style="text;strokeColor=none;fillColor=none;align=left;verticalAlign=top;spacingLeft=4;spacingRight=4;overflow=hidden;rotatable=0;points=[[0,0.5],[1,0.5]];portConstraint=eastwest;whiteSpace=wrap;html=1;fontStyle=2" vertex="1" parent="E574p-8nkFxnW5F4igIi-1">
          <mxGeometry y="126" width="570" height="26" as="geometry" />
        </mxCell>
        <mxCell id="E574p-8nkFxnW5F4igIi-7" value="# fetchData&amp;lt;T: SerializableGameData&amp;gt;(classType: Class&amp;lt;? extends T&amp;gt;, id: int): T" style="text;strokeColor=none;fillColor=none;align=left;verticalAlign=top;spacingLeft=4;spacingRight=4;overflow=hidden;rotatable=0;points=[[0,0.5],[1,0.5]];portConstraint=eastwest;whiteSpace=wrap;html=1;fontStyle=2" vertex="1" parent="E574p-8nkFxnW5F4igIi-1">
          <mxGeometry y="152" width="570" height="26" as="geometry" />
        </mxCell>
        <mxCell id="E574p-8nkFxnW5F4igIi-8" value="# fetchAll&amp;lt;T: SerializableGameData&amp;gt;(classType: Class&amp;lt;? extends T&amp;gt;): T" style="text;strokeColor=none;fillColor=none;align=left;verticalAlign=top;spacingLeft=4;spacingRight=4;overflow=hidden;rotatable=0;points=[[0,0.5],[1,0.5]];portConstraint=eastwest;whiteSpace=wrap;html=1;fontStyle=2" vertex="1" parent="E574p-8nkFxnW5F4igIi-1">
          <mxGeometry y="178" width="570" height="26" as="geometry" />
        </mxCell>
        <mxCell id="E574p-8nkFxnW5F4igIi-9" value="# updateData&amp;lt;T: SerializableGameData&amp;gt;(classType: Class&amp;lt;? extends T&amp;gt;, newData: T, ids: ...int): void" style="text;strokeColor=none;fillColor=none;align=left;verticalAlign=top;spacingLeft=4;spacingRight=4;overflow=hidden;rotatable=0;points=[[0,0.5],[1,0.5]];portConstraint=eastwest;whiteSpace=wrap;html=1;fontStyle=2" vertex="1" parent="E574p-8nkFxnW5F4igIi-1">
          <mxGeometry y="204" width="570" height="26" as="geometry" />
        </mxCell>
        <mxCell id="E574p-8nkFxnW5F4igIi-10" value="# deleteData&amp;lt;T: SerializableGameData&amp;gt;(classType: Class&amp;lt;? extends T&amp;gt;, ids: ...int): void" style="text;strokeColor=none;fillColor=none;align=left;verticalAlign=top;spacingLeft=4;spacingRight=4;overflow=hidden;rotatable=0;points=[[0,0.5],[1,0.5]];portConstraint=eastwest;whiteSpace=wrap;html=1;fontStyle=2" vertex="1" parent="E574p-8nkFxnW5F4igIi-1">
          <mxGeometry y="230" width="570" height="26" as="geometry" />
        </mxCell>
        <mxCell id="E574p-8nkFxnW5F4igIi-11" style="edgeStyle=orthogonalEdgeStyle;rounded=0;orthogonalLoop=1;jettySize=auto;html=1;exitX=0.5;exitY=0;exitDx=0;exitDy=0;endArrow=block;endFill=0;dashed=1;dashPattern=8 8;" edge="1" parent="1" source="E574p-8nkFxnW5F4igIi-12" target="E574p-8nkFxnW5F4igIi-1">
          <mxGeometry relative="1" as="geometry" />
        </mxCell>
        <mxCell id="E574p-8nkFxnW5F4igIi-12" value="LocalDatabaseManager" style="swimlane;fontStyle=1;align=center;verticalAlign=top;childLayout=stackLayout;horizontal=1;startSize=40;horizontalStack=0;resizeParent=1;resizeParentMax=0;resizeLast=0;collapsible=1;marginBottom=0;whiteSpace=wrap;html=1;" vertex="1" parent="1">
          <mxGeometry x="40" y="410" width="580" height="516" as="geometry" />
        </mxCell>
        <mxCell id="E574p-8nkFxnW5F4igIi-13" value="- storageDirName: String" style="text;strokeColor=none;fillColor=none;align=left;verticalAlign=top;spacingLeft=4;spacingRight=4;overflow=hidden;rotatable=0;points=[[0,0.5],[1,0.5]];portConstraint=eastwest;whiteSpace=wrap;html=1;fontStyle=0" vertex="1" parent="E574p-8nkFxnW5F4igIi-12">
          <mxGeometry y="40" width="580" height="26" as="geometry" />
        </mxCell>
        <mxCell id="E574p-8nkFxnW5F4igIi-14" value="- tables: Hashtable&amp;lt;Class&amp;lt;? extends SerializableGameData&amp;gt;, Hashtable&amp;lt;Integer, String&amp;gt;&amp;gt;" style="text;strokeColor=none;fillColor=none;align=left;verticalAlign=top;spacingLeft=4;spacingRight=4;overflow=hidden;rotatable=0;points=[[0,0.5],[1,0.5]];portConstraint=eastwest;whiteSpace=wrap;html=1;fontStyle=0" vertex="1" parent="E574p-8nkFxnW5F4igIi-12">
          <mxGeometry y="66" width="580" height="26" as="geometry" />
        </mxCell>
        <mxCell id="E574p-8nkFxnW5F4igIi-15" value="- tableNextId:&amp;nbsp;Hashtable&amp;lt;Class&amp;lt;? extends SerializableGameData&amp;gt;, Integer&amp;gt;" style="text;strokeColor=none;fillColor=none;align=left;verticalAlign=top;spacingLeft=4;spacingRight=4;overflow=hidden;rotatable=0;points=[[0,0.5],[1,0.5]];portConstraint=eastwest;whiteSpace=wrap;html=1;fontStyle=0" vertex="1" parent="E574p-8nkFxnW5F4igIi-12">
          <mxGeometry y="92" width="580" height="26" as="geometry" />
        </mxCell>
        <mxCell id="E574p-8nkFxnW5F4igIi-16" value="- &lt;u&gt;instance: LocalDatabaseManager&lt;/u&gt;" style="text;strokeColor=none;fillColor=none;align=left;verticalAlign=top;spacingLeft=4;spacingRight=4;overflow=hidden;rotatable=0;points=[[0,0.5],[1,0.5]];portConstraint=eastwest;whiteSpace=wrap;html=1;fontStyle=0" vertex="1" parent="E574p-8nkFxnW5F4igIi-12">
          <mxGeometry y="118" width="580" height="26" as="geometry" />
        </mxCell>
        <mxCell id="E574p-8nkFxnW5F4igIi-17" value="" style="line;strokeWidth=1;fillColor=none;align=left;verticalAlign=middle;spacingTop=-1;spacingLeft=3;spacingRight=3;rotatable=0;labelPosition=right;points=[];portConstraint=eastwest;strokeColor=inherit;" vertex="1" parent="E574p-8nkFxnW5F4igIi-12">
          <mxGeometry y="144" width="580" height="8" as="geometry" />
        </mxCell>
        <mxCell id="E574p-8nkFxnW5F4igIi-18" value="- LocalDatabaseManager: new()" style="text;strokeColor=none;fillColor=none;align=left;verticalAlign=top;spacingLeft=4;spacingRight=4;overflow=hidden;rotatable=0;points=[[0,0.5],[1,0.5]];portConstraint=eastwest;whiteSpace=wrap;html=1;fontStyle=4" vertex="1" parent="E574p-8nkFxnW5F4igIi-12">
          <mxGeometry y="152" width="580" height="26" as="geometry" />
        </mxCell>
        <mxCell id="E574p-8nkFxnW5F4igIi-19" value="- &lt;u&gt;newInstanceIfNull(): void&lt;/u&gt;" style="text;strokeColor=none;fillColor=none;align=left;verticalAlign=top;spacingLeft=4;spacingRight=4;overflow=hidden;rotatable=0;points=[[0,0.5],[1,0.5]];portConstraint=eastwest;whiteSpace=wrap;html=1;" vertex="1" parent="E574p-8nkFxnW5F4igIi-12">
          <mxGeometry y="178" width="580" height="26" as="geometry" />
        </mxCell>
        <mxCell id="E574p-8nkFxnW5F4igIi-20" value="-&amp;nbsp;getDataStoreFileName(classType: Class&amp;lt;? extends SerializableGameData&amp;gt;, id: int): String" style="text;strokeColor=none;fillColor=none;align=left;verticalAlign=top;spacingLeft=4;spacingRight=4;overflow=hidden;rotatable=0;points=[[0,0.5],[1,0.5]];portConstraint=eastwest;whiteSpace=wrap;html=1;" vertex="1" parent="E574p-8nkFxnW5F4igIi-12">
          <mxGeometry y="204" width="580" height="26" as="geometry" />
        </mxCell>
        <mxCell id="E574p-8nkFxnW5F4igIi-21" value="- getTable(classType: Class&amp;lt;? extends SerializableGameData&amp;gt;): Hashtable&amp;lt;Integer, String&amp;gt;" style="text;strokeColor=none;fillColor=none;align=left;verticalAlign=top;spacingLeft=4;spacingRight=4;overflow=hidden;rotatable=0;points=[[0,0.5],[1,0.5]];portConstraint=eastwest;whiteSpace=wrap;html=1;" vertex="1" parent="E574p-8nkFxnW5F4igIi-12">
          <mxGeometry y="230" width="580" height="26" as="geometry" />
        </mxCell>
        <mxCell id="E574p-8nkFxnW5F4igIi-22" value="- formatDataStoreFileName(data: SerializableGameData): String" style="text;strokeColor=none;fillColor=none;align=left;verticalAlign=top;spacingLeft=4;spacingRight=4;overflow=hidden;rotatable=0;points=[[0,0.5],[1,0.5]];portConstraint=eastwest;whiteSpace=wrap;html=1;" vertex="1" parent="E574p-8nkFxnW5F4igIi-12">
          <mxGeometry y="256" width="580" height="26" as="geometry" />
        </mxCell>
        <mxCell id="E574p-8nkFxnW5F4igIi-23" value="- formatDataStoreFileName(classType: Class&amp;lt;? extends SerializableGameData&amp;gt;, id: int): String" style="text;strokeColor=none;fillColor=none;align=left;verticalAlign=top;spacingLeft=4;spacingRight=4;overflow=hidden;rotatable=0;points=[[0,0.5],[1,0.5]];portConstraint=eastwest;whiteSpace=wrap;html=1;" vertex="1" parent="E574p-8nkFxnW5F4igIi-12">
          <mxGeometry y="282" width="580" height="26" as="geometry" />
        </mxCell>
        <mxCell id="E574p-8nkFxnW5F4igIi-24" value="- getFileNamesFromTable(classType: Class&amp;lt;? extends SerializableGameData&amp;gt;): String[]" style="text;strokeColor=none;fillColor=none;align=left;verticalAlign=top;spacingLeft=4;spacingRight=4;overflow=hidden;rotatable=0;points=[[0,0.5],[1,0.5]];portConstraint=eastwest;whiteSpace=wrap;html=1;" vertex="1" parent="E574p-8nkFxnW5F4igIi-12">
          <mxGeometry y="308" width="580" height="26" as="geometry" />
        </mxCell>
        <mxCell id="E574p-8nkFxnW5F4igIi-25" value="+ &lt;u&gt;getInstance(): LocalDatabaseManager&lt;/u&gt;" style="text;strokeColor=none;fillColor=none;align=left;verticalAlign=top;spacingLeft=4;spacingRight=4;overflow=hidden;rotatable=0;points=[[0,0.5],[1,0.5]];portConstraint=eastwest;whiteSpace=wrap;html=1;" vertex="1" parent="E574p-8nkFxnW5F4igIi-12">
          <mxGeometry y="334" width="580" height="26" as="geometry" />
        </mxCell>
        <mxCell id="E574p-8nkFxnW5F4igIi-26" value="+ saveData(SerializableGameData): int" style="text;strokeColor=none;fillColor=none;align=left;verticalAlign=top;spacingLeft=4;spacingRight=4;overflow=hidden;rotatable=0;points=[[0,0.5],[1,0.5]];portConstraint=eastwest;whiteSpace=wrap;html=1;" vertex="1" parent="E574p-8nkFxnW5F4igIi-12">
          <mxGeometry y="360" width="580" height="26" as="geometry" />
        </mxCell>
        <mxCell id="E574p-8nkFxnW5F4igIi-27" value="+ fetchData&amp;lt;T: SerializableGameData&amp;gt;(classType: Class&amp;lt;? extends T&amp;gt;, id: int): T" style="text;strokeColor=none;fillColor=none;align=left;verticalAlign=top;spacingLeft=4;spacingRight=4;overflow=hidden;rotatable=0;points=[[0,0.5],[1,0.5]];portConstraint=eastwest;whiteSpace=wrap;html=1;" vertex="1" parent="E574p-8nkFxnW5F4igIi-12">
          <mxGeometry y="386" width="580" height="26" as="geometry" />
        </mxCell>
        <mxCell id="E574p-8nkFxnW5F4igIi-28" value="+ fetchAll&amp;lt;T: SerializableGameData&amp;gt;(classType: Class&amp;lt;? extends T&amp;gt;): T" style="text;strokeColor=none;fillColor=none;align=left;verticalAlign=top;spacingLeft=4;spacingRight=4;overflow=hidden;rotatable=0;points=[[0,0.5],[1,0.5]];portConstraint=eastwest;whiteSpace=wrap;html=1;" vertex="1" parent="E574p-8nkFxnW5F4igIi-12">
          <mxGeometry y="412" width="580" height="26" as="geometry" />
        </mxCell>
        <mxCell id="E574p-8nkFxnW5F4igIi-29" value="+ updateData&amp;lt;T: SerializableGameData&amp;gt;(classType: Class&amp;lt;? extends T&amp;gt;, newData: T, ids: ...int): void" style="text;strokeColor=none;fillColor=none;align=left;verticalAlign=top;spacingLeft=4;spacingRight=4;overflow=hidden;rotatable=0;points=[[0,0.5],[1,0.5]];portConstraint=eastwest;whiteSpace=wrap;html=1;" vertex="1" parent="E574p-8nkFxnW5F4igIi-12">
          <mxGeometry y="438" width="580" height="26" as="geometry" />
        </mxCell>
        <mxCell id="E574p-8nkFxnW5F4igIi-30" value="+ deleteData&amp;lt;T: SerializableGameData&amp;gt;(classType: Class&amp;lt;? extends T&amp;gt;, ids: ...int): void" style="text;strokeColor=none;fillColor=none;align=left;verticalAlign=top;spacingLeft=4;spacingRight=4;overflow=hidden;rotatable=0;points=[[0,0.5],[1,0.5]];portConstraint=eastwest;whiteSpace=wrap;html=1;" vertex="1" parent="E574p-8nkFxnW5F4igIi-12">
          <mxGeometry y="464" width="580" height="26" as="geometry" />
        </mxCell>
        <mxCell id="E574p-8nkFxnW5F4igIi-31" value="+ &lt;u&gt;serialize(data: SerializableGameData): byte[]&lt;/u&gt;" style="text;strokeColor=none;fillColor=none;align=left;verticalAlign=top;spacingLeft=4;spacingRight=4;overflow=hidden;rotatable=0;points=[[0,0.5],[1,0.5]];portConstraint=eastwest;whiteSpace=wrap;html=1;" vertex="1" parent="E574p-8nkFxnW5F4igIi-12">
          <mxGeometry y="490" width="580" height="26" as="geometry" />
        </mxCell>
        <mxCell id="E574p-8nkFxnW5F4igIi-32" style="edgeStyle=orthogonalEdgeStyle;rounded=0;orthogonalLoop=1;jettySize=auto;html=1;exitX=0.5;exitY=0;exitDx=0;exitDy=0;endArrow=block;endFill=0;dashed=1;dashPattern=8 8;" edge="1" parent="1" source="E574p-8nkFxnW5F4igIi-33" target="E574p-8nkFxnW5F4igIi-1">
          <mxGeometry relative="1" as="geometry" />
        </mxCell>
        <mxCell id="E574p-8nkFxnW5F4igIi-33" value="MySQLDatabaseManager" style="swimlane;fontStyle=1;align=center;verticalAlign=top;childLayout=stackLayout;horizontal=1;startSize=40;horizontalStack=0;resizeParent=1;resizeParentMax=0;resizeLast=0;collapsible=1;marginBottom=0;whiteSpace=wrap;html=1;" vertex="1" parent="1">
          <mxGeometry x="760" y="410" width="580" height="386" as="geometry" />
        </mxCell>
        <mxCell id="E574p-8nkFxnW5F4igIi-34" value="- &lt;u&gt;username: String&lt;/u&gt;" style="text;strokeColor=none;fillColor=none;align=left;verticalAlign=top;spacingLeft=4;spacingRight=4;overflow=hidden;rotatable=0;points=[[0,0.5],[1,0.5]];portConstraint=eastwest;whiteSpace=wrap;html=1;fontStyle=0" vertex="1" parent="E574p-8nkFxnW5F4igIi-33">
          <mxGeometry y="40" width="580" height="26" as="geometry" />
        </mxCell>
        <mxCell id="E574p-8nkFxnW5F4igIi-35" value="- &lt;u&gt;password: String&lt;/u&gt;" style="text;strokeColor=none;fillColor=none;align=left;verticalAlign=top;spacingLeft=4;spacingRight=4;overflow=hidden;rotatable=0;points=[[0,0.5],[1,0.5]];portConstraint=eastwest;whiteSpace=wrap;html=1;fontStyle=0" vertex="1" parent="E574p-8nkFxnW5F4igIi-33">
          <mxGeometry y="66" width="580" height="26" as="geometry" />
        </mxCell>
        <mxCell id="E574p-8nkFxnW5F4igIi-36" value="- &lt;u&gt;dbUrl: String&lt;/u&gt;" style="text;strokeColor=none;fillColor=none;align=left;verticalAlign=top;spacingLeft=4;spacingRight=4;overflow=hidden;rotatable=0;points=[[0,0.5],[1,0.5]];portConstraint=eastwest;whiteSpace=wrap;html=1;fontStyle=0" vertex="1" parent="E574p-8nkFxnW5F4igIi-33">
          <mxGeometry y="92" width="580" height="26" as="geometry" />
        </mxCell>
        <mxCell id="E574p-8nkFxnW5F4igIi-37" value="- &lt;u&gt;instance: MySQLDatabaseManager&lt;/u&gt;" style="text;strokeColor=none;fillColor=none;align=left;verticalAlign=top;spacingLeft=4;spacingRight=4;overflow=hidden;rotatable=0;points=[[0,0.5],[1,0.5]];portConstraint=eastwest;whiteSpace=wrap;html=1;fontStyle=0" vertex="1" parent="E574p-8nkFxnW5F4igIi-33">
          <mxGeometry y="118" width="580" height="26" as="geometry" />
        </mxCell>
        <mxCell id="E574p-8nkFxnW5F4igIi-38" value="" style="line;strokeWidth=1;fillColor=none;align=left;verticalAlign=middle;spacingTop=-1;spacingLeft=3;spacingRight=3;rotatable=0;labelPosition=right;points=[];portConstraint=eastwest;strokeColor=inherit;" vertex="1" parent="E574p-8nkFxnW5F4igIi-33">
          <mxGeometry y="144" width="580" height="8" as="geometry" />
        </mxCell>
        <mxCell id="E574p-8nkFxnW5F4igIi-39" value="-&amp;nbsp;&lt;u&gt;MySQLDatabaseManager(dbUrl: String, username: String, password: String): new()&lt;/u&gt;" style="text;strokeColor=none;fillColor=none;align=left;verticalAlign=top;spacingLeft=4;spacingRight=4;overflow=hidden;rotatable=0;points=[[0,0.5],[1,0.5]];portConstraint=eastwest;whiteSpace=wrap;html=1;" vertex="1" parent="E574p-8nkFxnW5F4igIi-33">
          <mxGeometry y="152" width="580" height="26" as="geometry" />
        </mxCell>
        <mxCell id="E574p-8nkFxnW5F4igIi-40" value="- &lt;u&gt;newInstanceIfNull(): void&lt;/u&gt;" style="text;strokeColor=none;fillColor=none;align=left;verticalAlign=top;spacingLeft=4;spacingRight=4;overflow=hidden;rotatable=0;points=[[0,0.5],[1,0.5]];portConstraint=eastwest;whiteSpace=wrap;html=1;" vertex="1" parent="E574p-8nkFxnW5F4igIi-33">
          <mxGeometry y="178" width="580" height="26" as="geometry" />
        </mxCell>
        <mxCell id="E574p-8nkFxnW5F4igIi-41" value="+ &lt;u&gt;getInstance(): MySQLDatabaseManager&lt;/u&gt;" style="text;strokeColor=none;fillColor=none;align=left;verticalAlign=top;spacingLeft=4;spacingRight=4;overflow=hidden;rotatable=0;points=[[0,0.5],[1,0.5]];portConstraint=eastwest;whiteSpace=wrap;html=1;" vertex="1" parent="E574p-8nkFxnW5F4igIi-33">
          <mxGeometry y="204" width="580" height="26" as="geometry" />
        </mxCell>
        <mxCell id="E574p-8nkFxnW5F4igIi-42" value="+ &lt;u&gt;beginTransaction&amp;lt;T&amp;gt;(Transaction&amp;lt;T&amp;gt; action): T&lt;/u&gt;" style="text;strokeColor=none;fillColor=none;align=left;verticalAlign=top;spacingLeft=4;spacingRight=4;overflow=hidden;rotatable=0;points=[[0,0.5],[1,0.5]];portConstraint=eastwest;whiteSpace=wrap;html=1;" vertex="1" parent="E574p-8nkFxnW5F4igIi-33">
          <mxGeometry y="230" width="580" height="26" as="geometry" />
        </mxCell>
        <mxCell id="E574p-8nkFxnW5F4igIi-43" value="+ saveData(SerializableGameData): int" style="text;strokeColor=none;fillColor=none;align=left;verticalAlign=top;spacingLeft=4;spacingRight=4;overflow=hidden;rotatable=0;points=[[0,0.5],[1,0.5]];portConstraint=eastwest;whiteSpace=wrap;html=1;" vertex="1" parent="E574p-8nkFxnW5F4igIi-33">
          <mxGeometry y="256" width="580" height="26" as="geometry" />
        </mxCell>
        <mxCell id="E574p-8nkFxnW5F4igIi-44" value="+ fetchData&amp;lt;T: SerializableGameData&amp;gt;(classType: Class&amp;lt;? extends T&amp;gt;, id: int): T" style="text;strokeColor=none;fillColor=none;align=left;verticalAlign=top;spacingLeft=4;spacingRight=4;overflow=hidden;rotatable=0;points=[[0,0.5],[1,0.5]];portConstraint=eastwest;whiteSpace=wrap;html=1;" vertex="1" parent="E574p-8nkFxnW5F4igIi-33">
          <mxGeometry y="282" width="580" height="26" as="geometry" />
        </mxCell>
        <mxCell id="E574p-8nkFxnW5F4igIi-45" value="+ fetchAll&amp;lt;T: SerializableGameData&amp;gt;(classType: Class&amp;lt;? extends T&amp;gt;): T" style="text;strokeColor=none;fillColor=none;align=left;verticalAlign=top;spacingLeft=4;spacingRight=4;overflow=hidden;rotatable=0;points=[[0,0.5],[1,0.5]];portConstraint=eastwest;whiteSpace=wrap;html=1;" vertex="1" parent="E574p-8nkFxnW5F4igIi-33">
          <mxGeometry y="308" width="580" height="26" as="geometry" />
        </mxCell>
        <mxCell id="E574p-8nkFxnW5F4igIi-46" value="+ updateData&amp;lt;T: SerializableGameData&amp;gt;(classType: Class&amp;lt;? extends T&amp;gt;, newData: T, ids: ...int): void" style="text;strokeColor=none;fillColor=none;align=left;verticalAlign=top;spacingLeft=4;spacingRight=4;overflow=hidden;rotatable=0;points=[[0,0.5],[1,0.5]];portConstraint=eastwest;whiteSpace=wrap;html=1;" vertex="1" parent="E574p-8nkFxnW5F4igIi-33">
          <mxGeometry y="334" width="580" height="26" as="geometry" />
        </mxCell>
        <mxCell id="E574p-8nkFxnW5F4igIi-47" value="+ deleteData&amp;lt;T: SerializableGameData&amp;gt;(classType: Class&amp;lt;? extends T&amp;gt;, ids: ...int): void" style="text;strokeColor=none;fillColor=none;align=left;verticalAlign=top;spacingLeft=4;spacingRight=4;overflow=hidden;rotatable=0;points=[[0,0.5],[1,0.5]];portConstraint=eastwest;whiteSpace=wrap;html=1;" vertex="1" parent="E574p-8nkFxnW5F4igIi-33">
          <mxGeometry y="360" width="580" height="26" as="geometry" />
        </mxCell>
        <mxCell id="E574p-8nkFxnW5F4igIi-48" style="edgeStyle=orthogonalEdgeStyle;rounded=0;orthogonalLoop=1;jettySize=auto;html=1;endArrow=circlePlus;endFill=0;" edge="1" parent="1" source="E574p-8nkFxnW5F4igIi-49" target="E574p-8nkFxnW5F4igIi-2">
          <mxGeometry relative="1" as="geometry" />
        </mxCell>
        <mxCell id="E574p-8nkFxnW5F4igIi-49" value="Transaction&amp;lt;R&amp;gt;&lt;div&gt;&lt;span style=&quot;font-weight: normal;&quot;&gt;&amp;lt;&amp;lt;Interface&amp;gt;&amp;gt;&lt;/span&gt;&lt;/div&gt;" style="swimlane;fontStyle=1;align=center;verticalAlign=top;childLayout=stackLayout;horizontal=1;startSize=40;horizontalStack=0;resizeParent=1;resizeParentMax=0;resizeLast=0;collapsible=1;marginBottom=0;whiteSpace=wrap;html=1;" vertex="1" parent="1">
          <mxGeometry x="1440" y="20" width="180" height="66" as="geometry" />
        </mxCell>
        <mxCell id="E574p-8nkFxnW5F4igIi-50" value="&lt;i&gt;+ apply(db: Connection): R&lt;/i&gt;" style="text;strokeColor=none;fillColor=none;align=left;verticalAlign=top;spacingLeft=4;spacingRight=4;overflow=hidden;rotatable=0;points=[[0,0.5],[1,0.5]];portConstraint=eastwest;whiteSpace=wrap;html=1;" vertex="1" parent="E574p-8nkFxnW5F4igIi-49">
          <mxGeometry y="40" width="180" height="26" as="geometry" />
        </mxCell>
        <mxCell id="E574p-8nkFxnW5F4igIi-51" style="edgeStyle=orthogonalEdgeStyle;rounded=0;orthogonalLoop=1;jettySize=auto;html=1;endArrow=circlePlus;endFill=0;" edge="1" parent="1" source="E574p-8nkFxnW5F4igIi-52" target="E574p-8nkFxnW5F4igIi-3">
          <mxGeometry relative="1" as="geometry" />
        </mxCell>
        <mxCell id="E574p-8nkFxnW5F4igIi-52" value="SerializationFailureException" style="swimlane;fontStyle=1;align=center;verticalAlign=top;childLayout=stackLayout;horizontal=1;startSize=30;horizontalStack=0;resizeParent=1;resizeParentMax=0;resizeLast=0;collapsible=1;marginBottom=0;whiteSpace=wrap;html=1;" vertex="1" parent="1">
          <mxGeometry x="1440" y="140" width="610" height="108" as="geometry" />
        </mxCell>
        <mxCell id="E574p-8nkFxnW5F4igIi-53" value="&lt;span style=&quot;font-style: normal;&quot;&gt;# SerializationFailureException(data: SerializableGameData, cause: Exception): new()&lt;/span&gt;" style="text;strokeColor=none;fillColor=none;align=left;verticalAlign=top;spacingLeft=4;spacingRight=4;overflow=hidden;rotatable=0;points=[[0,0.5],[1,0.5]];portConstraint=eastwest;whiteSpace=wrap;html=1;fontStyle=6" vertex="1" parent="E574p-8nkFxnW5F4igIi-52">
          <mxGeometry y="30" width="610" height="26" as="geometry" />
        </mxCell>
        <mxCell id="E574p-8nkFxnW5F4igIi-54" value="&lt;span style=&quot;font-style: normal;&quot;&gt;# SerializationFailureException(&lt;/span&gt;&lt;span style=&quot;font-style: normal;&quot;&gt;classType: Class&amp;lt;? extends SerializableGameData&amp;gt;&lt;/span&gt;&lt;span style=&quot;font-style: normal;&quot;&gt;, cause: Exception): new()&lt;/span&gt;" style="text;strokeColor=none;fillColor=none;align=left;verticalAlign=top;spacingLeft=4;spacingRight=4;overflow=hidden;rotatable=0;points=[[0,0.5],[1,0.5]];portConstraint=eastwest;whiteSpace=wrap;html=1;fontStyle=6" vertex="1" parent="E574p-8nkFxnW5F4igIi-52">
          <mxGeometry y="56" width="610" height="26" as="geometry" />
        </mxCell>
        <mxCell id="E574p-8nkFxnW5F4igIi-55" value="&lt;span style=&quot;font-style: normal;&quot;&gt;# SerializationFailureException(&lt;/span&gt;&lt;span style=&quot;font-style: normal;&quot;&gt;classType: Class&amp;lt;? extends SerializableGameData&amp;gt;&lt;/span&gt;&lt;span style=&quot;font-style: normal;&quot;&gt;): new()&lt;/span&gt;" style="text;strokeColor=none;fillColor=none;align=left;verticalAlign=top;spacingLeft=4;spacingRight=4;overflow=hidden;rotatable=0;points=[[0,0.5],[1,0.5]];portConstraint=eastwest;whiteSpace=wrap;html=1;fontStyle=6" vertex="1" parent="E574p-8nkFxnW5F4igIi-52">
          <mxGeometry y="82" width="610" height="26" as="geometry" />
        </mxCell>
        <mxCell id="E574p-8nkFxnW5F4igIi-56" value="DataFetchException" style="swimlane;fontStyle=1;align=center;verticalAlign=top;childLayout=stackLayout;horizontal=1;startSize=30;horizontalStack=0;resizeParent=1;resizeParentMax=0;resizeLast=0;collapsible=1;marginBottom=0;whiteSpace=wrap;html=1;" vertex="1" parent="1">
          <mxGeometry x="1440" y="280" width="660" height="186" as="geometry" />
        </mxCell>
        <mxCell id="E574p-8nkFxnW5F4igIi-57" value="&lt;span style=&quot;font-style: normal;&quot;&gt;# &lt;u&gt;DataFetchException(&lt;/u&gt;&lt;/span&gt;&lt;u&gt;&lt;span style=&quot;font-style: normal;&quot;&gt;classType: Class&amp;lt;? extends SerializableGameData&amp;gt;&lt;/span&gt;&lt;span style=&quot;font-style: normal;&quot;&gt;, id: int, cause: Exception): new()&lt;/span&gt;&lt;/u&gt;" style="text;strokeColor=none;fillColor=none;align=left;verticalAlign=top;spacingLeft=4;spacingRight=4;overflow=hidden;rotatable=0;points=[[0,0.5],[1,0.5]];portConstraint=eastwest;whiteSpace=wrap;html=1;fontStyle=2" vertex="1" parent="E574p-8nkFxnW5F4igIi-56">
          <mxGeometry y="30" width="660" height="26" as="geometry" />
        </mxCell>
        <mxCell id="E574p-8nkFxnW5F4igIi-58" value="&lt;span style=&quot;font-style: normal;&quot;&gt;# &lt;u&gt;DataFetchException&lt;/u&gt;&lt;/span&gt;&lt;u&gt;&lt;span style=&quot;font-style: normal;&quot;&gt;(&lt;/span&gt;&lt;span style=&quot;font-style: normal;&quot;&gt;classType: Class&amp;lt;? extends SerializableGameData&amp;gt;&lt;/span&gt;&lt;span style=&quot;font-style: normal;&quot;&gt;): new()&lt;/span&gt;&lt;/u&gt;" style="text;strokeColor=none;fillColor=none;align=left;verticalAlign=top;spacingLeft=4;spacingRight=4;overflow=hidden;rotatable=0;points=[[0,0.5],[1,0.5]];portConstraint=eastwest;whiteSpace=wrap;html=1;fontStyle=2" vertex="1" parent="E574p-8nkFxnW5F4igIi-56">
          <mxGeometry y="56" width="660" height="26" as="geometry" />
        </mxCell>
        <mxCell id="E574p-8nkFxnW5F4igIi-59" value="&lt;span style=&quot;font-style: normal;&quot;&gt;# &lt;u&gt;DataFetchException&lt;/u&gt;&lt;/span&gt;&lt;u&gt;&lt;span style=&quot;font-style: normal;&quot;&gt;(fileName: String, cause: Exception&lt;/span&gt;&lt;span style=&quot;font-style: normal;&quot;&gt;): new()&lt;/span&gt;&lt;/u&gt;" style="text;strokeColor=none;fillColor=none;align=left;verticalAlign=top;spacingLeft=4;spacingRight=4;overflow=hidden;rotatable=0;points=[[0,0.5],[1,0.5]];portConstraint=eastwest;whiteSpace=wrap;html=1;fontStyle=2" vertex="1" parent="E574p-8nkFxnW5F4igIi-56">
          <mxGeometry y="82" width="660" height="26" as="geometry" />
        </mxCell>
        <mxCell id="E574p-8nkFxnW5F4igIi-60" value="&lt;span style=&quot;font-style: normal;&quot;&gt;+ &lt;u&gt;formatMessage(&lt;/u&gt;&lt;/span&gt;&lt;u&gt;&lt;span style=&quot;font-style: normal;&quot;&gt;classType:&amp;nbsp;&lt;/span&gt;&lt;span style=&quot;font-style: normal;&quot;&gt;Class&amp;lt;? extends SerializableGameData&amp;gt;&lt;/span&gt;&lt;span style=&quot;font-style: normal;&quot;&gt;, id: int&lt;/span&gt;&lt;span style=&quot;font-style: normal;&quot;&gt;): String&lt;/span&gt;&lt;/u&gt;" style="text;strokeColor=none;fillColor=none;align=left;verticalAlign=top;spacingLeft=4;spacingRight=4;overflow=hidden;rotatable=0;points=[[0,0.5],[1,0.5]];portConstraint=eastwest;whiteSpace=wrap;html=1;fontStyle=2" vertex="1" parent="E574p-8nkFxnW5F4igIi-56">
          <mxGeometry y="108" width="660" height="26" as="geometry" />
        </mxCell>
        <mxCell id="E574p-8nkFxnW5F4igIi-61" value="&lt;span style=&quot;font-style: normal;&quot;&gt;+ &lt;u&gt;formatMessage(classType:&amp;nbsp;&lt;/u&gt;&lt;/span&gt;&lt;u&gt;&lt;span style=&quot;font-style: normal;&quot;&gt;Class&amp;lt;? extends SerializableGameData&amp;gt;&lt;/span&gt;&lt;span style=&quot;font-style: normal;&quot;&gt;): String&lt;/span&gt;&lt;/u&gt;" style="text;strokeColor=none;fillColor=none;align=left;verticalAlign=top;spacingLeft=4;spacingRight=4;overflow=hidden;rotatable=0;points=[[0,0.5],[1,0.5]];portConstraint=eastwest;whiteSpace=wrap;html=1;fontStyle=2" vertex="1" parent="E574p-8nkFxnW5F4igIi-56">
          <mxGeometry y="134" width="660" height="26" as="geometry" />
        </mxCell>
        <mxCell id="E574p-8nkFxnW5F4igIi-62" value="&lt;span style=&quot;font-style: normal;&quot;&gt;+ &lt;u&gt;formatMessage(fileName: String): String&lt;/u&gt;&lt;/span&gt;" style="text;strokeColor=none;fillColor=none;align=left;verticalAlign=top;spacingLeft=4;spacingRight=4;overflow=hidden;rotatable=0;points=[[0,0.5],[1,0.5]];portConstraint=eastwest;whiteSpace=wrap;html=1;fontStyle=2" vertex="1" parent="E574p-8nkFxnW5F4igIi-56">
          <mxGeometry y="160" width="660" height="26" as="geometry" />
        </mxCell>
        <mxCell id="E574p-8nkFxnW5F4igIi-63" style="edgeStyle=orthogonalEdgeStyle;rounded=0;orthogonalLoop=1;jettySize=auto;html=1;endArrow=circlePlus;endFill=0;" edge="1" parent="1" source="E574p-8nkFxnW5F4igIi-56" target="E574p-8nkFxnW5F4igIi-4">
          <mxGeometry relative="1" as="geometry">
            <mxPoint x="1150" y="315" as="sourcePoint" />
            <mxPoint x="1000" y="130" as="targetPoint" />
            <Array as="points">
              <mxPoint x="1020" y="315" />
              <mxPoint x="1020" y="135" />
            </Array>
          </mxGeometry>
        </mxCell>
        <mxCell id="E574p-8nkFxnW5F4igIi-64" style="edgeStyle=orthogonalEdgeStyle;rounded=0;orthogonalLoop=1;jettySize=auto;html=1;exitX=0.5;exitY=0;exitDx=0;exitDy=0;endArrow=block;endFill=0;" edge="1" parent="1" source="E574p-8nkFxnW5F4igIi-65" target="E574p-8nkFxnW5F4igIi-68">
          <mxGeometry relative="1" as="geometry" />
        </mxCell>
        <mxCell id="E574p-8nkFxnW5F4igIi-65" value="SerializableGameData&lt;div&gt;&lt;span style=&quot;font-weight: normal;&quot;&gt;&amp;lt;&amp;lt;Interface&amp;gt;&amp;gt;&lt;/span&gt;&lt;/div&gt;" style="swimlane;fontStyle=1;align=center;verticalAlign=top;childLayout=stackLayout;horizontal=1;startSize=40;horizontalStack=0;resizeParent=1;resizeParentMax=0;resizeLast=0;collapsible=1;marginBottom=0;whiteSpace=wrap;html=1;" vertex="1" parent="1">
          <mxGeometry x="40" y="120" width="180" height="92" as="geometry" />
        </mxCell>
        <mxCell id="E574p-8nkFxnW5F4igIi-66" value="&lt;i&gt;+ getId(): int&lt;/i&gt;" style="text;strokeColor=none;fillColor=none;align=left;verticalAlign=top;spacingLeft=4;spacingRight=4;overflow=hidden;rotatable=0;points=[[0,0.5],[1,0.5]];portConstraint=eastwest;whiteSpace=wrap;html=1;" vertex="1" parent="E574p-8nkFxnW5F4igIi-65">
          <mxGeometry y="40" width="180" height="26" as="geometry" />
        </mxCell>
        <mxCell id="E574p-8nkFxnW5F4igIi-67" value="&lt;i&gt;+ getNextId(): int&lt;/i&gt;" style="text;strokeColor=none;fillColor=none;align=left;verticalAlign=top;spacingLeft=4;spacingRight=4;overflow=hidden;rotatable=0;points=[[0,0.5],[1,0.5]];portConstraint=eastwest;whiteSpace=wrap;html=1;" vertex="1" parent="E574p-8nkFxnW5F4igIi-65">
          <mxGeometry y="66" width="180" height="26" as="geometry" />
        </mxCell>
        <mxCell id="E574p-8nkFxnW5F4igIi-68" value="Serializable&lt;div&gt;&lt;span style=&quot;font-weight: normal;&quot;&gt;&amp;lt;&amp;lt;Interface&amp;gt;&amp;gt;&lt;/span&gt;&lt;/div&gt;" style="swimlane;fontStyle=1;align=center;verticalAlign=top;childLayout=stackLayout;horizontal=1;startSize=90;horizontalStack=0;resizeParent=1;resizeParentMax=0;resizeLast=0;collapsible=1;marginBottom=0;whiteSpace=wrap;html=1;" vertex="1" parent="1">
          <mxGeometry x="40" y="30" width="180" height="50" as="geometry" />
        </mxCell>
      </root>
    </mxGraphModel>
  </diagram>
</mxfile>
